<?xml version="1.0" encoding="UTF-8"?>
<svg width="1200pt" height="1200pt" version="1.1" viewBox="0 0 1200 1200" xmlns="http://www.w3.org/2000/svg">
 <g>
  <path d="m806.82 434.58h0.054687c0.58203 0.019531 1.0547-0.18359 1.2578-0.39453 0.035156-0.035156 0.09375-0.10547 0.097656-0.16797-0.019531-0.050781-0.097656-0.20312-0.37109-0.54688-0.13281-0.16797-0.32422-0.26172-0.53125-0.26172h-0.96094c-0.20312 0-0.39844 0.09375-0.53125 0.26172-0.27734 0.34766-0.35156 0.49609-0.37109 0.54688 0.007812 0.0625 0.0625 0.13281 0.097656 0.16797 0.20703 0.21484 0.68359 0.41797 1.2578 0.39453z"/>
  <path d="m810.43 437.23h-7.125l-2.0391 2.6797h11.273z"/>
  <path d="m814.97 441.43h-16.238l-0.23438 0.26172h16.707z"/>
  <path d="m797.55 443.21h18.598v0.91016h-18.598z"/>
  <path d="m394.39 434.58h0.054687c0.58203 0.019531 1.0508-0.18359 1.2578-0.39453 0.035156-0.035156 0.09375-0.10547 0.097656-0.16797-0.019531-0.050781-0.097656-0.20312-0.37109-0.54688-0.13281-0.16797-0.32422-0.26172-0.53125-0.26172h-0.96094c-0.20312 0-0.39844 0.09375-0.53125 0.26172-0.27734 0.34766-0.35156 0.49609-0.37109 0.54688 0.007812 0.0625 0.0625 0.13281 0.097656 0.16797 0.20703 0.21484 0.67578 0.41797 1.2578 0.39453z"/>
  <path d="m397.96 437.23h-7.125l-2.1094 2.6797h11.273z"/>
  <path d="m402.54 441.43h-16.238l-0.23438 0.26172h16.707z"/>
  <path d="m385.12 443.21h18.598v0.91016h-18.598z"/>
  <path d="m973.93 705.73v-6.4297h-7.9297v14.379h7.9297z"/>
  <path d="m923.51 729.54h30.328v1.3516h-30.328z"/>
  <path d="m860.93 729.54h30.316v1.3516h-30.316z"/>
  <path d="m802.9 742.67h-12.859v1.418l0.29297 0.34766h12.566z"/>
  <path d="m774.98 748.35h16.27v14.977h-16.27z"/>
  <path d="m726.31 807.38h49.879v2.4258h-49.879z"/>
  <path d="m706.5 826.29h-50.637v1.9453h6.4688v0.48047h44.168z"/>
  <path d="m670.64 854.57v-8.1875h-45.527v8.1875z"/>
  <path d="m574.88 854.57v-8.1875h-45.527v8.1875z"/>
  <path d="m539.18 830.34v2.5938h25.871v-3.1875h-25.871z"/>
  <path d="m466.93 821.87h25.359v6.9531h-25.359z"/>
  <path d="m397.87 803.04h24.746v6.7656h-24.746z"/>
  <path d="m409.06 748.35h16.27v14.977h-16.27z"/>
  <path d="m363.3 738.72h33.551v5.7148h-33.551z"/>
  <path d="m310.02 729.54h30.316v1.3516h-30.316z"/>
  <path d="m247.43 729.54h30.328v1.3516h-30.328z"/>
  <path d="m216.68 726.07h29.23v4.8242h-29.23z"/>
  <path d="m227.34 699.3h7.9258v14.379h-7.9258z"/>
  <path d="m277.76 639.87h-30.32v6.082l-0.40625 0.48438-0.14453 0.17188-3.4102 4.0664v3.5547h-2.4727v3.0703h-4.2266v3.3633h4.2266v3.0703h0.26172c0.39844-11.422 9.8125-20.59 21.328-20.59 11.52 0 20.934 9.168 21.336 20.59h0.26172v-3.0703h4.2266v-3.3633h-4.2266v-3.0703h-2.4727l-0.003906-3.5547-3.5547-4.2422-0.40625-0.48438v-1.0352z"/>
  <path d="m341.86 639.87v5.0547h19.926v-4.5117h-8.3594l0.60938-0.54297z"/>
  <path d="m357.39 638.89h67.961v-1.1055l0.42188-0.46484 1.4336-1.5859v-9.6094h-55.547z"/>
  <path d="m323.91 609.3 0.089844-0.10938h-5.2773l0.085938 0.10938z"/>
  <path d="m317.92 600.84h6.8867v6.8359h-6.8867z"/>
  <path d="m296.48 574.86c7.4727 0 14.461 3.5117 19.719 9.8945h1.4922v-1.7109h-2.6094v-2.0312h-1.5273v-2.5273l-2.0547-2.625-0.38672-0.49609v-3.8438h-29.273v3.8438l-0.38672 0.49609-2.0469 2.625v2.5273h-1.5273v2.0312h-2.6094v1.7109h1.4922c5.2578-6.3828 12.246-9.8945 19.719-9.8945z"/>
  <path d="m376.21 579.2-1.8008-2.3047-0.38672-0.49609v-3.8398h-20.375l1.5312-1.0469h-23.578v3.8438l-0.38672 0.49609-2.0469 2.625v2.5273h-1.5273v2.0312h-2.6094v1.7109h1.5859c7.8086-6.3828 18.191-9.8984 29.273-9.8984 7.1484 0.007813 14.141 1.5078 20.32 4.3516z"/>
  <path d="m383.83 537.26h24.832v1.6953h-24.832z"/>
  <path d="m361.29 474.7h65.773v2.8359h-65.773z"/>
  <path d="m508.65 471.11-8.2734 7.0508h93.543l2.5469-5.3281c0.41016-0.69922 0.89062-1.2773 1.4258-1.7227z"/>
  <path d="m519.21 462.54h162.31v7.0508h-162.31z"/>
  <path d="m528.78 453.98-8.2852 7.0508h159.72l-8.2852-7.0508z"/>
  <path d="m539.38 445.38h121.99v7.0742h-121.99z"/>
  <path d="m548.94 436.81-8.2891 7.0547h119.41l-8.2852-7.0547z"/>
  <path d="m559.49 428.25h81.762v7.0508h-81.762z"/>
  <path d="m560.77 426.73h79.176l-8.2852-7.0508h-62.605z"/>
  <path d="m539.38 405.07h42.883l3.7109-2.8398c1.7266-1.3203 3.8203-2.1289 5.9766-2.3281-0.054687-0.074219-0.10937-0.14844-0.16406-0.23047h-52.406z"/>
  <path d="m561.33 349.99h-0.94141c-0.25391 0-0.45703 0.20703-0.45703 0.46875 0 0.25 0.20312 0.45703 0.45703 0.45703h7.9844c0.25 0 0.45703-0.20312 0.45703-0.45703 0-0.26172-0.19922-0.46875-0.45703-0.46875z"/>
  <path d="m563.5 348.48h2.0234c-0.15625-1.6602-0.30859-3-0.49219-4.0898-0.53125 1.3828-1.1484 3.0469-1.5312 4.0898z"/>
  <path d="m570.22 306.87c-0.70703 8.8164-1.1133 22.852-1.207 41.715 0.77734 0.26562 1.3359 1.0078 1.3359 1.8789 0 0.17578-0.027344 0.34766-0.070312 0.51172 1.0898 0.23828 1.9141 1.2188 1.9141 2.3867 0 1.1172-0.76172 2.0586-1.7891 2.3398 0.22656 3.8789 0.17188 13.695 0.074218 21.797h2.0508c-0.19531-19.203-0.29688-53.152 1.125-70.75 1.7773-22.121 12.48-51.438 14.523-56.867-1.2266 0.16016-2.4062 0.34375-3.5273 0.54688-2.0352 5.4023-12.668 34.527-14.43 56.441z"/>
  <path d="m615.98 250.32c-1.1172-0.22266-2.3008-0.41016-3.5352-0.57031 1.9141 5.0703 12.793 34.691 14.586 56.996 0.96094 11.906 1.1914 31.215 1.2148 45.316l0.015625 2.5977c0 7.2578-0.035157 14.938-0.10938 22.836h2.4766c-0.097656-8.1367-0.15625-18.082 0.070313-21.992-1.0312-0.28125-1.793-1.2227-1.793-2.3398 0-1.168 0.82031-2.1484 1.9141-2.3867-0.042968-0.16406-0.070312-0.33594-0.070312-0.51172 0-0.69141 0.35547-1.3047 0.89062-1.6602v-3.8672c-0.11719-16.551-0.52734-29.648-1.1836-37.871-1.7734-22.062-12.551-51.434-14.477-56.547z"/>
  <path d="m635.57 348.28h2.0234c-0.38281-1.043-1-2.7031-1.5352-4.0898-0.17969 1.0938-0.33203 2.4297-0.48828 4.0898z"/>
  <path d="m632.72 349.8c-0.25391 0-0.45703 0.20703-0.45703 0.46875 0 0.25 0.20312 0.45703 0.45703 0.45703h7.9844c0.25 0 0.45703-0.20312 0.45703-0.45703 0-0.26172-0.19922-0.46875-0.45703-0.46875z"/>
  <path d="m617.12 402.79 2.5586 2.2812h41.672v-5.3945h-52.445c-0.042968 0.0625-0.085937 0.12109-0.12891 0.17969h0.64844c2.8438 0 5.5781 1.043 7.6953 2.9336z"/>
  <path d="m574.35 375.1c-0.13672-0.15234-0.24609-0.31641-0.33594-0.48828 0.007812 0.99609 0.019531 1.957 0.027343 2.8867h3.4062c-1.1914-0.62891-2.25-1.4375-3.0977-2.3984z"/>
  <path d="m576.03 372.62h48.863l-8.7109-6.2461c-1.8555-1.3281-4.25-2.0625-6.7461-2.0625h-16.449c-2.2188 0-4.4062 0.59375-6.1641 1.6719z"/>
  <path d="m592.43 341.99c-0.14453 3.0664-0.27734 5.8477-0.38672 8.1836 0.4375-2.7148 0.95313-5.6641 1.3203-7.1016-0.41797-0.26172-0.73828-0.63672-0.93359-1.082z"/>
  <path d="m596.06 337.65c-0.25391 0-0.45703 0.20703-0.45703 0.46875 0 0.23047 0.17188 0.41797 0.39063 0.44922h8.1133c0.21875-0.03125 0.39062-0.21875 0.39062-0.44922 0-0.26172-0.19922-0.46875-0.45703-0.46875z"/>
  <path d="m599.05 336.14h2.1289c-0.21484-1.7891-0.57031-3.3438-0.90625-4.6094-0.42578 1.4844-0.89844 3.3203-1.2227 4.6094z"/>
  <path d="m593.74 341.02c0 0.42578 0.29297 0.78906 0.70703 0.88672 0.074219 0.015625 0.14844 0.023437 0.21875 0.023437h10.754c0.51172 0 0.91406-0.40234 0.91406-0.91406s-0.41016-0.92578-0.91406-0.92578h-1.25c-0.042969 0.003906-0.085938 0.007812-0.12891 0.007812h-7.9844c-0.042969 0-0.085938-0.003906-0.12891-0.007812h-1.2617c-0.50781 0.003906-0.92578 0.41797-0.92578 0.92969z"/>
  <path d="m607.22 342.64c0.027344 0.33984 0.33203 2.8828 0.67578 5.6484-0.066406-2.1406-0.13281-4.2891-0.19922-6.4375-0.10547 0.29297-0.26953 0.55859-0.47656 0.78906z"/>
  <path d="m594.35 350.16c0.75-1.0234 1.668-1.8359 2.6797-2.4062-0.039063-2.1797-0.11719-3.5703-0.17188-4.3086h-2.0391c-0.33203 1.2969-0.93359 4.7461-1.5234 8.4922z"/>
  <path d="m598.54 347.11c0.78516-0.23438 1.5977-0.33594 2.418-0.28125 0.26953 0.019531 0.53125 0.054687 0.79297 0.10156-0.042969-1.6992-0.10547-2.8359-0.15234-3.4883h-3.2109c0.046876 0.71484 0.11328 1.9023 0.15234 3.668z"/>
  <path d="m605.42 343.45h-2.3086c0.054688 0.75781 0.12109 2.043 0.16016 3.9727 1.3867 0.63672 2.5625 1.7461 3.3789 3.2461l0.027344 0.054688c-0.35547-2.7812-0.73438-5.8945-0.89453-7.2734z"/>
  <path d="m591.48 359.63c0.61328 1.9062 1.5938 3.1367 2.4961 3.1367h12.113c0.90234 0 1.8828-1.2305 2.4961-3.1367l0.03125-0.10156c0.17578-0.55078 0.14062-1.375-0.078126-1.8047l-3.2344-6.3516c-0.97656-1.793-2.6055-2.9023-4.457-3.0273-1.9883-0.13281-3.8984 0.84766-5.2539 2.6836l-4.0117 6.7539c-0.21484 0.35938-0.30859 1.207-0.10156 1.8477z"/>
  <path d="m626.63 377.5c0.007813-0.96094 0.015626-1.9219 0.023438-2.875-0.078125 0.12891-0.16797 0.25391-0.26953 0.37109l-0.089844 0.10156c-0.84766 0.96094-1.9062 1.7695-3.0977 2.3984z"/>
  <path d="m583.58 377.5h33.484c3.2031-0.039062 6.1992-1.2852 8.0508-3.3594h-49.59c1.8555 2.0742 4.8516 3.3203 8.0547 3.3594z"/>
  <path d="m594.49 384.4 0.13281-0.27734c1.6367-2.7812 4.0156-4.2891 6.5273-4.1406 2.3633 0.14062 4.418 1.7461 5.6914 4.418h32.719l-7.8555-5.3828h-14.645c-0.050781 0-0.097656 0.003906-0.14844 0.003906h-33.184c-0.050781 0-0.097657-0.003906-0.14844-0.003906h-14.57l-7.8438 5.3828z"/>
  <path d="m609.68 391.28h31.574v-5.3672h-33.77z"/>
  <path d="m642.48 374.23h-6.1484c-0.10938 0-0.19531 0.089844-0.19531 0.20312s0.085937 0.19531 0.19531 0.19531h6.1445c0.019531 0 0.035156-0.003906 0.054687-0.007812 0.070313-0.015625 0.14844-0.082031 0.14844-0.19141 0.007812-0.10547-0.085938-0.19922-0.19922-0.19922z"/>
  <path d="m639.12 371.32h0.33203c-0.082031-0.22656-0.17188-0.46094-0.26172-0.69922-0.023437 0.21875-0.046875 0.45312-0.070312 0.69922z"/>
  <path d="m637.09 379.16h-0.55469c0.011719 0.51953 0.023438 0.98828 0.03125 1.3477l1.3203 0.90234c-0.10938-2.3242-0.23828-4.2656-0.30469-5.25h-0.4375c-0.035157 0.78125-0.054688 1.8438-0.054688 3z"/>
  <path d="m639.11 376.16c0.082031 1.1914 0.23438 3.5703 0.35156 6.3242l2.4453 1.6758-0.089844-0.62109c-0.83203-4.2891-1.3633-6.4727-1.6016-7.3789z"/>
  <path d="m642.93 391.28-0.15625-1.1094v1.1094z"/>
  <path d="m644.46 391.28h1.3672c-0.62109-3.0469-1.2266-5.8555-1.75-8.1523-0.80469-3.4531-1.4297-5.7891-1.8672-6.9648h-0.42969c0.28125 1.1094 0.78125 3.2773 1.5273 7.1094l0.007812 0.035156 0.29297 2.0195 0.85547 0.58594h-0.76953z"/>
  <path d="m635.57 355.6c0.12891 1.6523 0.41016 6.0625 0.74219 15.98 0.23438-0.16016 0.51562-0.25391 0.81641-0.25391h0.46484c0.16797-1.8164 0.31641-3.1758 0.53516-3.9844l0.53516-2.0078 0.88281 1.8828c0.30859 0.66016 1.1562 3.0508 1.5273 4.1094h0.61719c0.082032 0 0.16016 0.011719 0.23828 0.023437-1.8984-9.9609-3.0078-14.348-3.3906-15.75z"/>
  <path d="m634.05 355.6h-1.832c-0.17969 3.0898-0.20312 10.605-0.070313 21.902h0.03125l2.8516 1.9531c-0.035156-1.3477-0.082032-3.1055-0.11328-4.0625-0.17969-0.27344-0.28906-0.59766-0.28906-0.94922 0-0.31641 0.085938-0.60938 0.23438-0.86328-0.36328-11.48-0.68359-16.355-0.8125-17.98z"/>
  <path d="m563.51 376.36c-0.054687 0.75-0.14453 2.207-0.25391 4.7656l0.76562-0.52344c-0.003906-1.9414-0.023437-3.3477-0.066406-4.2422z"/>
  <path d="m561.98 371.52c-0.023437-0.24609-0.050781-0.48047-0.074218-0.69922-0.089844 0.23828-0.17578 0.47266-0.26172 0.69922z"/>
  <path d="m558.41 374.64c0 0.10547 0.082031 0.17578 0.15625 0.19141 0.011719 0.003906 0.03125 0.003906 0.050781 0.003906h6.1445c0.11328 0 0.19531-0.085937 0.19531-0.19531 0-0.11328-0.085937-0.20312-0.19531-0.20312h-6.1484c-0.10938 0-0.20312 0.09375-0.20312 0.20312z"/>
  <path d="m561.99 376.36h-1.1016c-0.24219 0.91406-0.78125 3.1328-1.6328 7.5117l2.4375-1.6719c0.12891-3.1641 0.23047-4.9297 0.29688-5.8398z"/>
  <path d="m566.12 377.29c-0.019531 0.62109-0.035156 1.2578-0.054688 1.9102l2.4688-1.6953h0.41406c0.13281-11.188 0.10938-18.633-0.070313-21.703h-1.8359c-0.12891 1.625-0.44922 6.5-0.8125 17.977 0.14844 0.25391 0.23438 0.55078 0.23438 0.86328 0 0.35547-0.10938 0.6875-0.29688 0.96094-0.011719 0.55469-0.03125 1.1133-0.046875 1.6875z"/>
  <path d="m562.96 367.54c0.21484 0.80859 0.36719 2.168 0.53516 3.9844h0.46484c0.30469 0 0.58594 0.09375 0.81641 0.25391 0.33203-9.918 0.61328-14.328 0.74219-15.98h-2.9727c-0.38281 1.4062-1.4961 5.8125-3.3906 15.75 0.078125-0.011719 0.15625-0.023438 0.23828-0.023438h0.61719c0.37109-1.0625 1.2188-3.4492 1.5312-4.1094l0.88281-1.8789z"/>
  <path d="m558.89 376.36c-0.4375 1.1758-1.0664 3.5117-1.8711 6.9688-0.51172 2.2461-1.1016 4.9805-1.7109 7.9531h1.0469c1.5586-8.9844 2.5273-13.211 2.9609-14.922z"/>
  <path d="m557.96 390.89c-0.023438 0.12891-0.046875 0.26172-0.066406 0.39062h0.066406z"/>
  <path d="m593.77 385.91h-34.285v5.3672h31.723z"/>
  <path d="m594.29 399.82h12.113c0.72266 0 1.7695-1.2344 2.4844-3.9883l0.03125-0.12891c0.19922-0.76562 0.15625-1.8789-0.089844-2.4844l-3.2344-7.9062c-1.0117-2.3086-2.668-3.707-4.5352-3.8203-1.918-0.11328-3.7773 1.1133-5.1133 3.3672l-4.0156 8.4141c-0.24609 0.51172-0.35156 1.6602-0.12109 2.5547 0.71094 2.7578 1.7578 3.9922 2.4805 3.9922z"/>
  <path d="m642.77 392.8h-32.48c0.32031 0.91016 0.36719 2.2539 0.10156 3.2852l-0.03125 0.12891c-0.1875 0.72266-0.40625 1.375-0.64844 1.9531h49.953l-7.8477-5.3672z"/>
  <path d="m640.11 355.6c0.48828 1.8438 1.625 6.5469 3.5039 16.488 0.082031 0.43359 0.16406 0.87891 0.25 1.332 0.21094 0.28516 0.33984 0.64062 0.33984 1.0234 0 0.15625-0.027343 0.30859-0.066406 0.45312 0.39062 2.1094 0.96484 5.3281 1.4258 7.9336 0.54297 2.3789 1.168 5.293 1.8125 8.4531h2.8984c-4.8008-24.27-7.1406-32.883-8.2773-35.684z"/>
  <path d="m630.42 353.16c0 0.51172 0.40234 0.91406 0.91406 0.91406h10.754c0.074218 0 0.14453-0.007813 0.22266-0.023437 0.41406-0.09375 0.70703-0.46094 0.70703-0.88672 0-0.51172-0.41406-0.92578-0.92578-0.92578h-9.3711l-1.3867-0.003907c-0.50391 0-0.91406 0.41406-0.91406 0.92578z"/>
  <path d="m608.22 249.33c0.32422 2.5312 4.5 35.535 4.8281 48.734 0.21094 8.3828 1.1719 39.094 1.875 61.52l0.13672 4.4062c0.71094 0.32422 1.3828 0.70703 2.0039 1.1523l8.8594 6.3516c0.32031 0.23047 0.57031 0.50781 0.75391 0.82031 0.042968-6.0781 0.066406-11.996 0.066406-17.652l-0.015625-2.5938c-0.023438-14.078-0.25391-33.344-1.2109-45.199-1.9336-24.074-14.586-56.84-14.773-57.316-0.82812-0.085938-1.668-0.16016-2.5234-0.22266z"/>
  <path d="m603.16 249.1c0.72656 5.7539 4.418 35.543 4.7227 47.922 0.19922 8.0312 1.0625 36.027 1.793 59.582l0.21875 0.42969c0.39844 0.78125 0.46875 2.0234 0.16797 2.957l-0.03125 0.10156c-0.066406 0.21094-0.14062 0.41406-0.21484 0.60938l0.058594 2.1055c1.2578 0.039062 2.4922 0.24219 3.6523 0.60156l-0.11719-3.7773c-0.70312-22.426-1.6602-53.141-1.875-61.527-0.33984-13.586-4.7891-48.383-4.8359-48.734l0.72266-0.09375c-1.3945-0.089844-2.8203-0.14453-4.2617-0.17578z"/>
  <path d="m599.05 249.11c-0.66016 5.2148-4.4297 35.504-4.7344 47.957-0.19922 8.1641-1.0938 28.047-1.7812 42.777 0.33594-0.60938 0.92578-1.0586 1.625-1.2109-0.042969-0.16016-0.066406-0.32812-0.066406-0.50391 0-1.0938 0.88672-1.9883 1.9727-1.9883h1.4258c0.42188-1.6992 1.582-6.2734 2.1641-7.5195l0.88281-1.8828 0.53516 2.0078c0.066407 0.24609 0.14844 0.53125 0.23828 0.85156 0.4375 1.5156 1.0781 3.75 1.3945 6.543h1.3359c1.0859 0 1.9727 0.89062 1.9727 1.9883 0 0.17578-0.023438 0.34375-0.070313 0.50781 0.76172 0.16797 1.3906 0.69922 1.6992 1.4023-0.57812-18.734-1.125-36.777-1.2773-42.969-0.30859-12.469-4.0859-42.805-4.7383-47.977-0.85938-0.007813-1.7188-0.003906-2.5781 0.015625z"/>
  <path d="m586.81 364.26c1.4062-0.72266 3-1.1875 4.6445-1.3672-0.5625-0.69531-1.043-1.6406-1.418-2.7969-0.30078-0.92969-0.23438-2.1016 0.14062-2.8906 0.14062-2.9102 2.2891-46.957 2.6133-60.18 0.30078-12.348 3.9805-42.043 4.7188-47.879-1.2773 0.042968-2.5469 0.10937-3.8008 0.19531l0.25 0.03125c-0.046875 0.35156-4.4961 35.148-4.8359 48.734-0.27344 11.508-1.9453 56.379-2.3125 66.152z"/>
  <path d="m575.16 306.87c-1.3008 16.117-1.3203 46.047-1.1641 65.676 0.21094-0.42188 0.55078-0.78906 0.99219-1.0625l10.27-6.3125c0.26953-7.2344 2.0625-55.16 2.3555-67.105 0.32422-13.043 4.4062-45.418 4.8125-48.633-0.86719 0.070312-1.7188 0.15234-2.5586 0.24609-0.875 2.293-12.828 33.836-14.707 57.191z"/>
  <path d="m558.08 353.36c0 0.42578 0.29297 0.79297 0.71094 0.89062 0.066407 0.015625 0.14063 0.023438 0.21484 0.023438h10.754c0.51172 0 0.91406-0.40234 0.91406-0.91406s-0.41016-0.92578-0.91406-0.92578h-1.3867l-7.9805-0.003906h-1.3867c-0.50781 0-0.92578 0.41797-0.92578 0.92969z"/>
  <path d="m553.76 391.28c0.62891-3.082 1.2383-5.9258 1.7695-8.2539h-0.003906c0.45703-2.6055 1.0352-5.8281 1.4258-7.9336-0.039063-0.14453-0.066406-0.29688-0.066406-0.45312 0-0.38281 0.12891-0.73438 0.33984-1.0234 0.085938-0.45313 0.16797-0.89844 0.25-1.332 1.8789-9.9414 3.0156-14.645 3.5039-16.488h-1.8789c-1.1328 2.7891-3.4648 11.363-8.2383 35.484z"/>
  <path d="m541.04 398.16h49.945c-0.24219-0.58203-0.46094-1.2305-0.64453-1.9531-0.28125-1.0859-0.21094-2.5078 0.15234-3.4141h-41.602z"/>
  <path d="m575.63 412.08h49.566c-0.0625-0.089843-0.13672-0.17578-0.22266-0.25391l-8.8594-7.9062c-1.8438-1.6445-4.2148-2.5469-6.6836-2.5469h-16.445c-2.1914 0-4.3594 0.73438-6.0977 2.0664l-11.043 8.4453c-0.082031 0.058593-0.15234 0.125-0.21484 0.19531z"/>
  <path d="m575.54 413.92c1.8789 2.6523 4.9414 4.2383 8.1953 4.2383h33.184c3.25 0 6.3164-1.5859 8.1953-4.2383l0.089844-0.12891c0.042969-0.058593 0.074219-0.125 0.10938-0.1875h-49.938c0.042968 0.10938 0.09375 0.21484 0.16406 0.31641z"/>
  <path d="m683.04 471.11h-79.695c0.60156 0.53125 1.1133 1.2539 1.5 2.1328l2.0117 4.918h93.473l-8.2617-7.0508z"/>
  <path d="m839.98 474.7h-66.246v0.023437h-0.066407v2.8125h66.312z"/>
  <path d="m827.24 575.38v1.0195l-0.38672 0.49609-1.8008 2.3047c6.1797-2.8438 13.172-4.3438 20.32-4.3438 11.082 0 21.465 3.5156 29.273 9.8984h1.5859v-1.7109h-2.6094v-2.0312h-1.5273v-2.5273l-2.0469-2.625-0.38672-0.49609v-3.8438h-23.578l1.5312 1.0469h-20.375z"/>
  <path d="m919.42 571.52h-29.27v3.8438l-0.38672 0.49609-2.0547 2.625v2.5273h-1.5273v2.0312h-2.6094v1.7109h1.4922c5.2539-6.3828 12.242-9.8945 19.719-9.8945 7.4727 0 14.461 3.5117 19.719 9.8945h1.4922v-1.7109h-2.6094v-2.0312l-1.5273 0.003907v-2.5273l-2.0469-2.625-0.38672-0.49609v-1.0195z"/>
  <path d="m876.46 600.84h6.8867v6.8359h-6.8867z"/>
  <path d="m882.46 609.3 0.085938-0.10938h-5.2773l0.085937 0.10938z"/>
  <path d="m877.75 591.43h4.3125v6.2617h-4.3125z"/>
  <path d="m877.27 599.32h5.2773l-0.09375-0.11719h-5.0898z"/>
  <path d="m810.29 610.59c-0.35547 0.43359-0.56641 0.98828-0.56641 1.5938v6.6836h14.574v-6.6758c0-1.3867-1.125-2.5117-2.5117-2.5117h-9.5703c-0.77734-0.003906-1.4688 0.35156-1.9258 0.91016z"/>
  <path d="m774.96 640.41v0.58203h2.8906l2.4297 2.6836 0.42188 0.46875 0.53516 0.58984c1.3945-0.25 2.832-0.38672 4.2695-0.38672 13.102 0 23.809 10.469 24.207 23.488h0.50781v-3.5117h4.8281v-4.0391l-4.8242 0.003906v-3.5078h-2.8164l-0.003906-3.9805-4.1094-4.9062-0.40234-0.48047v-7z"/>
  <path d="m773.62 626.13v10.172l0.91797 1.0156 0.42188 0.46875 0.95312 1.0508 0.046875 0.054687h67.91l-14.27-12.762z"/>
  <path d="m839.49 644.92h19.922v-5.0547h-12.172l0.60938 0.54297h-8.3594z"/>
  <path d="m953.83 639.87h-30.32v6.082l-0.40625 0.48438-0.85547 1.0234-2.6953 3.2188v3.5547h-2.4727v3.0703h-4.2266v3.3633h4.2266v3.0703h0.26172c0.40234-11.422 9.8164-20.59 21.336-20.59 11.512 0 20.926 9.168 21.328 20.59h0.26172v-3.0703h4.2305v-3.3633h-4.2305v-3.0703h-2.4727l-0.007813-3.5586-2.6953-3.2188-0.85547-1.0234-0.40625-0.48438z"/>
  <path d="m954.24 724.55 0.625-0.74609h-32.387l0.625 0.74609 0.40234 0.48438 0.10156 0.12109h30.125z"/>
  <path d="m891.65 724.55 0.625-0.74609h-32.379l0.625 0.74609 0.41016 0.48828 0.097656 0.11719h30.117l0.10156-0.12109z"/>
  <path d="m810.23 729.83h-1.3008v1.9922h24.535v-1.9922z"/>
  <path d="m802.9 737.2h0.40234l0.91797-1.0938h-14.18v1.7656h12.703l0.15625-0.1875z"/>
  <path d="m777.71 768.07h10.82v19.246h-10.82z"/>
  <path d="m776.19 801.52v-2.0273h-55.543v2.4258h55.543z"/>
  <path d="m708.02 811.43v2.5977h20.078v-2.5977z"/>
  <path d="m706.5 820.36v-1.957h-50.637v2.4258h50.637z"/>
  <path d="m623.6 846.38v-1.0312l0.40625-0.48438 0.50781-0.60938h-49.035l0.51172 0.60938 0.40234 0.48438v1.332h47.207z"/>
  <path d="m576.39 848.2h47.207v2.4258h-47.207z"/>
  <path d="m627.82 840.31h-55.637l2.0312 2.4258h51.574z"/>
  <path d="m629.65 838.12v-1.7539h-59.301v1.7539l0.5625 0.67188h58.176z"/>
  <path d="m629.65 834.85v-1.918h3.7812v-0.50781h-66.863v0.50781h3.7812v1.918z"/>
  <path d="m411.79 768.07h10.82v19.246h-10.82z"/>
  <path d="m398.37 739.39h11.902v1.7656h-11.902z"/>
  <path d="m340.34 724.55h0.41016l0.625-0.74609h-32.383l0.62891 0.74609h0.40234v0.48438l0.10156 0.12109h30.117l0.097656-0.11719z"/>
  <path d="m277.76 724.55h0.40234l0.625-0.74609h-32.387l0.625 0.74609h0.40625v0.48438l0.10156 0.12109h30.125l0.10156-0.12109z"/>
  <path d="m241.01 715.2h43.176v1.3516h-43.176z"/>
  <path d="m287.84 684.2h12.102v11.113h-12.102z"/>
  <path d="m378.3 607.38v0.78125h10.754v-0.007812h1.1758v-0.76953h-3.1758v-0.003906z"/>
  <path d="m379.91 590.05h8.7188v7.9766h-8.7188z"/>
  <path d="m375.54 572.56h17.457v2.8203h-17.457z"/>
  <path d="m378.78 542.83h31.336v3.7344h-31.336z"/>
  <path d="m411.63 540.47v8.9688h8.2188v-8.9688h-0.61328v8.3516h-6.9961v-8.3516z"/>
  <path d="m403.91 515.02h25.117v1.6992h-25.117z"/>
  <path d="m404.85 513.5h23.23l-0.75391-0.83594h-21.723z"/>
  <path d="m413.48 501.63c0.082031-0.11328 0.16797-0.22656 0.26953-0.35156 0.089844-0.10938 0.1875-0.21094 0.28906-0.30469-0.039063-0.24609 0.015625-0.5 0.16797-0.71094 0.09375-0.13281 0.19922-0.27734 0.30078-0.42578h-0.26562l0.70312-1.1523c0.33203-0.53906 0.53125-1.1133 0.60547-1.7305l0.57812-4.75-10.895 9.4258z"/>
  <path d="m408.52 493.97h3.25l4.6367-4.0156 0.015625-0.12109h-7.9023z"/>
  <path d="m416.51 489.84 0.003906 0.03125 0.035156-0.03125z"/>
  <path d="m410.02 495.49h-0.61719l0.26172 0.30859z"/>
  <path d="m596.49 482.72h7.7305c0.23438 0 0.86328-0.57031 1.3203-2.3398l0.023438-0.082031c0.12109-0.47656 0.074219-1.1172-0.046875-1.4141l-2.0625-5.0469c-0.60156-1.3711-1.5703-2.2031-2.6562-2.2656-1.1094-0.066406-2.207 0.66406-3.0039 2.0039l-2.5586 5.3594c-0.13281 0.27734-0.1875 0.95312-0.058594 1.4414 0.44922 1.7734 1.0781 2.3438 1.3125 2.3438z"/>
  <path d="m585.36 490.55h30.176l-5.3008-4.7266c-1.125-1.0039-2.5742-1.5586-4.082-1.5586h-10.496c-1.3398 0-2.6641 0.44922-3.7266 1.2617z"/>
  <path d="m784.93 490.48 4.2969 3.7188v-0.23047h3.5273v-4.1367h-7.9023z"/>
  <path d="m784.18 489.84 0.52734 0.45312 0.054687-0.45312z"/>
  <path d="m790.71 495.49 0.67188 0.58203 0.49219-0.58203z"/>
  <path d="m785.2 492.73 0.51562 4.2266c0.074218 0.61719 0.27734 1.1914 0.59766 1.7109l0.71484 1.1562-0.26953 0.003907c0.13281 0.19141 0.24609 0.35156 0.30859 0.4375 0.14844 0.21094 0.20703 0.46484 0.16797 0.71094 0.10156 0.09375 0.20312 0.19531 0.28906 0.30469 0.10156 0.125 0.1875 0.24219 0.26953 0.35156h7.6914z"/>
  <path d="m783.27 502.22c-0.47266 0.59375-0.53906 0.79688-0.54688 0.84375-0.007812 0.13281 0.058594 0.28125 0.19922 0.42969 0.375 0.39062 1.1055 0.625 1.8516 0.59766h0.054687c0.74219 0.027344 1.4727-0.20703 1.8516-0.59766 0.14453-0.14844 0.21094-0.29688 0.19922-0.4375-0.007812-0.039063-0.074218-0.24219-0.54687-0.83594-0.22656-0.27734-0.55078-0.4375-0.89844-0.4375h-1.2695c-0.34766 0-0.67188 0.16016-0.89453 0.4375z"/>
  <path d="m785.21 500.27c-0.097656-0.14453-0.19922-0.29297-0.29297-0.42969h-0.23828c-0.09375 0.14062-0.19141 0.28516-0.29297 0.42969z"/>
  <path d="m789.73 504.09 0.21094 0.24609c0.15234-0.40234 0.32031-0.80078 0.50781-1.1992h-2.0508c-0.011719 0.32812-0.10938 0.65234-0.28125 0.95312z"/>
  <path d="m773.94 512.67-0.75391 0.83594h23.23l-0.75391-0.83594z"/>
  <path d="m808.27 572.56h17.457v2.8203h-17.457z"/>
  <path d="m812.64 590.05h8.7188v7.9766h-8.7188z"/>
  <path d="m811.04 608.15h1.1797v0.007812h10.754v-0.78125h-8.7539v0.003906h-3.1797z"/>
  <path d="m892.77 639.87h29.23v5.0469h-29.23z"/>
  <path d="m901.33 684.2h12.098v11.113h-12.098z"/>
  <path d="m917.09 715.2h43.176v1.3516h-43.176z"/>
  <path d="m894.68 720.94h-37.184l1.1328 1.3516h34.918z"/>
  <path d="m807.41 729.55h-13.34l-0.12891 0.21484h-3.8984v1.5508h17.367z"/>
  <path d="m705.23 765.88h16.695v15.371h-16.695z"/>
  <path d="m720.65 787.66h55.539v2.4258h-55.539z"/>
  <path d="m706.11 782.76 1.5078 1.7891h11.926l1.5117-1.7891z"/>
  <path d="m706.5 811.43v-0.92188h-50.637v2.4258h50.637z"/>
  <path d="m639.1 801.65 1.9102 2.2617h13.746l1.9102-2.2617z"/>
  <path d="m638.22 782.32h19.316v17.805h-19.316z"/>
  <path d="m542.46 782.32h19.316v17.805h-19.316z"/>
  <path d="m558.99 803.91 1.9102-2.2617h-17.566l1.9102 2.2617z"/>
  <path d="m543.33 780.81h17.566l-1.9102-2.2617h-13.746z"/>
  <path d="m545.65 760.55h12.934v16.477h-12.934z"/>
  <path d="m544.13 759.04h19.715l3.3281-5.707h-30.121l3.3281 5.707z"/>
  <path d="m478.39 765.88h16.695v15.371h-16.695z"/>
  <path d="m494.21 782.76h-14.945l1.5078 1.7891h11.926z"/>
  <path d="m424.13 805.86h49.879v-0.054687h5.6562v-2.3711h-55.535z"/>
  <path d="m424.13 787.66h55.535v2.4258h-55.535z"/>
  <path d="m479.27 764.36h14.945l-1.5117-1.7852h-11.926z"/>
  <path d="m481.18 746.84h11.113v14.211h-11.113z"/>
  <path d="m479.66 745.32h17.277l2.793-4.793h-1.793v-0.007812h-24.203l2.7969 4.8008z"/>
  <path d="m466.93 706.59h39.609v7.2539h-39.609z"/>
  <path d="m410.27 729.76h-3.8984l-0.12891-0.21484h-12.383v1.7656h16.41z"/>
  <path d="m343.78 720.94h-37.184l1.1289 1.3516h34.922z"/>
  <path d="m283.23 718.27v1.5586h21.324v-1.5586z"/>
  <path d="m303.6 715.2h43.168v1.3516h-43.168z"/>
  <path d="m350.43 684.2h12.102v11.113h-12.102z"/>
  <path d="m310.02 639.87v6.082l-0.40234 0.48438-3.543 4.2383v3.5547h-2.4766v3.0703h-4.2305v3.3633h4.2305v3.0703h0.25c0.39844-11.422 9.8125-20.59 21.328-20.59 11.52 0 20.934 9.168 21.336 20.59h0.26172v-3.0703h4.2266v-3.3633h-4.2266v-3.0703h-2.4727v-3.5547l-0.49609-0.58984-3.0547-3.6406-0.40625-0.48047v-6.0859z"/>
  <path d="m285.7 652.71h18.84v-1.5547h-21.312v1.5547z"/>
  <path d="m307.64 646.43h-27.496l2.6875 3.207h22.121z"/>
  <path d="m432.63 634.62h24.77l0.45312-1.4805 0.45313 1.4805h26.305v-2.1523h-51.98z"/>
  <path d="m455.33 580.48v1.0352l-0.40234 0.48438-4.332 5.1836v4.168h-2.9688v3.6836h-5.0703v4.3398h1.3984c10.48-12.406 24.473-19.238 39.438-19.238 0.96094 0 1.8398 0.027344 2.6797 0.078126l3.4062-3.6719v-2.418h-34.145z"/>
  <path d="m510.29 556.14h180.16v3.9531h-180.16z"/>
  <path d="m424.38 549.44 1.2578-1.3555h-4.2656v1.3555z"/>
  <path d="m440.58 525.1 0.90625 1.0078h0.25391l0.91406-0.78125 0.78906-0.67188h-2.8633z"/>
  <path d="m478.94 503.9h94.094v-3.6055l0.46484-0.39844 3.582-3.0469h-98.141z"/>
  <path d="m589.75 494.42h21.18c1.8906 0 3.6719-0.87891 4.832-2.3594h-30.844c1.1602 1.4844 2.9453 2.3594 4.832 2.3594z"/>
  <path d="m575.84 499.89h49.047l-4.6445-3.9531h-39.758z"/>
  <path d="m780.25 537.64h-0.29297v1.3164h11.133v-1.3164z"/>
  <path d="m776.55 549.44h3.3398v-1.3555h-4.8008l1.2578 1.3555z"/>
  <path d="m678.63 543.68 0.48047 0.41016v1.9922h93.035v-6.3789h-8.5781l-0.76172 0.015625h-88.828z"/>
  <path d="m427.07 546.54v-3.7109h-5.6992v3.7383h5.6758z"/>
  <path d="m427.07 538.19h10.113v-0.92578h-14.355v1.6953h4.2422z"/>
  <path d="m438.7 538.19h95.793v-5.0625l0.46484-0.39844 1.8828-1.6055h-98.141z"/>
  <path d="m548.84 523.3h103.05v3.9531h-103.05z"/>
  <path d="m458.8 521.04h89.875l5.543-4.7148h5.9727v-2.3359h-101.39z"/>
  <path d="m567.64 506.88-4.6445 3.9531h74.719l-4.6445-3.9531z"/>
  <path d="m561.71 512.35h77.312v3.9688h-77.312z"/>
  <path d="m554.78 517.84-4.6445 3.9531h100.45l-4.6445-3.9531z"/>
  <path d="m541.92 528.77-4.6328 3.9531h126.14l-4.6328-3.9531z"/>
  <path d="m763.57 538.19h10.094v0.76953h4.7812v-1.6953h-14.875z"/>
  <path d="m779.9 542.83h-6.2344v3.7109l0.023438 0.027343h6.2109z"/>
  <path d="m665.77 532.73 0.48047 0.41016v5.0508h95.805v-7.0664h-98.168z"/>
  <path d="m536 534.24h128.72v3.9414h-128.72z"/>
  <path d="m524.43 543.68h151.87l-4.6523-3.9609h-142.56z"/>
  <path d="m773.66 540.47h6.2344v0.83984h-6.2344z"/>
  <path d="m763.57 535.75h17.633l0.41406-0.82812h-18.047z"/>
  <path d="m783.22 531.71h-19.652v1.6953h18.805z"/>
  <path d="m653.82 522.55 0.88672 0.75391h-1.3047v3.9531h5.9492l2.75 2.3477h98.645l-8.2852-7.0547z"/>
  <path d="m757.27 524.65 1.7109 1.4531h0.80078l0.90625-1.0078v-0.44531z"/>
  <path d="m743.45 521.04h8.5469c-2.6641-2.1016-5.5234-3.9414-8.5469-5.4961z"/>
  <path d="m640.54 516.32h5.9609l5.543 4.7148h89.887v-7.0508h-101.39z"/>
  <path d="m633.69 505.41 6.3672 5.4219 0.48047 0.40625v1.2266h100.09l-8.2891-7.0547z"/>
  <path d="m574.55 501.41h51.637v3.9531h-51.637z"/>
  <path d="m468.38 505.41-8.2773 7.0547h100.09v-1.2383l0.46875-0.39453 6.3672-5.4219z"/>
  <path d="m457.29 515.54c-3.0234 1.5547-5.8828 3.3945-8.5469 5.4961h8.5469z"/>
  <path d="m541.36 527.26h5.9648v-4.707h-99.074l-4.2695 3.6367-1.5508 1.3203-0.13281 0.11328-1.7188 1.4648-0.3125 0.26172-0.30078 0.25781h98.645z"/>
  <path d="m437.18 531.71h-19.133l0.84766 1.6953h18.285z"/>
  <path d="m437.18 535.75v-0.82812h-17.527l0.41406 0.82812z"/>
  <path d="m410.18 537.64v1.3164h11.133v-1.3164h-0.29688 0.003906z"/>
  <path d="m421.37 540.47h5.6992v0.83984h-5.6992z"/>
  <path d="m437.18 539.7h-8.5938v6.3789h93.035v-2.0078l0.46484-0.39453 4.6523-3.9609h-89.559z"/>
  <path d="m523.14 545.2h154.46v3.9531h-154.46z"/>
  <path d="m516.22 550.67-4.6445 3.9531h177.57l-4.6445-3.9531z"/>
  <path d="m503.38 561.61-4.6445 3.9531h203.25l-4.6445-3.9531z"/>
  <path d="m497.45 567.07h205.84v3.9609h-205.84z"/>
  <path d="m491 572.55v3.5234h218.73v-3.5234h-4.9258v0.007813h-208.88v-0.007813z"/>
  <path d="m747.02 574.12h35.367v6.3555h-35.367z"/>
  <path d="m769.61 610.23h-9.8086v11.66h0.81641l0.84375 0.93359h8.1484z"/>
  <path d="m736.66 645.64h-0.625v1.7266h12.973v-1.7266z"/>
  <path d="m792.33 657.59h-5.9766l-0.60547 0.011719h-36.887v1.7695h43.469z"/>
  <path d="m772.2 719.58v2.4961h21.852v-2.4961z"/>
  <path d="m777.71 713.21h10.809v4.8594h-10.809z"/>
  <path d="m794.05 709.2h-21.852v2.4961h21.852z"/>
  <path d="m797.28 707.68v-2.4961h-28.316v2.4961z"/>
  <path d="m797.68 703.67 3.9023-4.6523h-36.926l3.8984 4.6523z"/>
  <path d="m763.79 690.45h38.656v7.0508h-38.656z"/>
  <path d="m724.76 688.93h37.516v-0.003907h41.691v0.003907h5.4297l-16.598-14.836h-68.254v2.2305h-2.0586v5.2383h2.0547v7.1719z"/>
  <path d="m397.87 690.45h38.656v7.0508h-38.656z"/>
  <path d="m406.26 719.58v2.4961h21.863v-2.4961z"/>
  <path d="m411.79 713.21h10.809v4.8516h-10.809z"/>
  <path d="m428.12 711.7v-2.4961h-21.863v2.4961z"/>
  <path d="m429.64 707.68h1.7109v-2.4961h-28.316v2.4961z"/>
  <path d="m431.8 703.62 3.8555-4.6016h-36.922l3.8984 4.6523h29.125z"/>
  <path d="m436.52 688.93h39.02l0.22266-0.19922v-7.168h2.0547v-5.2383h-2.0547v-2.2305h-68.242l-16.598 14.836z"/>
  <path d="m421.13 645.2h28.656v2.168h-28.656z"/>
  <path d="m491.09 628.46h8.9102v8.1523h-8.9102z"/>
  <path d="m476.27 593h248.2l-14.301-15.41h-219.59z"/>
  <path d="m694.24 594.52h22.023v3.5078h-22.023z"/>
  <path d="m702.4 617.57h5.7148v7.4883h-5.7148z"/>
  <path d="m701.68 626.95h7.1602l-0.31641-0.375h-6.5273z"/>
  <path d="m542.04 687.61h-0.83203v6.2109h118.86v-6.2109z"/>
  <path d="m490.75 660.9v1.6172h29.375v-2.2539h-29.375z"/>
  <path d="m452.97 648.88v10.496h9.6328v-10.496h-0.91797v9.5625h-7.793v-9.5625z"/>
  <path d="m502.52 649.46h25.395l0.44922-1.4727 0.44922 1.4727h26.969v-2.2422h-53.262z"/>
  <path d="m508.41 640.69h41.477v2.2539h-41.477z"/>
  <path d="m514.29 634.18h29.719v2.2539h-29.719z"/>
  <path d="m515.24 632.66h27.824l-1.1172-1.2422h-25.59z"/>
  <path d="m527.25 619.21c-0.59375 0.74219-0.66406 0.99219-0.67188 1.0508-0.015625 0.20312 0.074219 0.41016 0.26953 0.61328 0.46484 0.48438 1.3594 0.77344 2.2695 0.74219h0.054687c0.91406 0.03125 1.8008-0.25781 2.2695-0.74219 0.19531-0.20312 0.28516-0.41016 0.26953-0.61328-0.007813-0.058594-0.074219-0.30859-0.66797-1.0508-0.28516-0.35938-0.70703-0.5625-1.1523-0.5625h-1.4883c-0.44922 0-0.86719 0.20312-1.1523 0.5625z"/>
  <path d="m528.94 616.37c-0.16016 0.24609-0.34766 0.51562-0.51953 0.76953h1.4609c-0.17578-0.25-0.35937-0.52344-0.51953-0.76953z"/>
  <path d="m523.93 623.38h10.738l-0.20703-0.24219h-10.324z"/>
  <path d="m519.45 629.9h19.219l-3.8008-5h-11.48z"/>
  <path d="m509.36 639.18h39.59l-1.1094-1.2305h-37.371z"/>
  <path d="m504.58 644.46-1.1172 1.2422h51.371l-1.1172-1.2422z"/>
  <path d="m552.83 628.46h8.9102v8.1523h-8.9102z"/>
  <path d="m544.75 594.52h-36.684v4.543l-0.40234 0.48438-2.6172 3.1328v2.8359h-1.8945v2.3516h-3.2383v2.2227h2.1289c6.7148-7.8945 15.629-12.238 25.133-12.238 9.1758 0 16.754 3.8945 23.82 12.238h1.9141v-2.2305h-3.2383v-2.3516h-1.8945v-2.832l-2.625-3.1328-0.40625-0.48438v-1.0352z"/>
  <path d="m692.72 594.52h-36.684v4.543l-0.40234 0.48438-2.6211 3.1328v2.8359h-1.8945v2.3516l-3.2383-0.007813v2.2227h2.1289c6.7383-7.918 15.676-12.277 25.211-12.277 9.1016 0 16.652 3.9062 23.742 12.277h1.918l0.003907-2.2227h-3.2383v-2.3516h-1.8945v-2.832l-2.625-3.1328-0.40625-0.48438z"/>
  <path d="m639.06 628.46h8.9102v8.1523h-8.9102z"/>
  <path d="m650.43 640.69h41.477v2.2539h-41.477z"/>
  <path d="m656.3 634.18h29.719v2.2539h-29.719z"/>
  <path d="m669.27 619.21c-0.59375 0.74219-0.66406 0.99219-0.66797 1.0508-0.015625 0.20312 0.074219 0.41016 0.26953 0.61328 0.46484 0.48438 1.3594 0.77734 2.2695 0.74219h0.054687c0.91016 0.03125 1.8047-0.25781 2.2695-0.74219 0.19531-0.20312 0.28516-0.41016 0.26953-0.61328-0.007813-0.058594-0.074219-0.30859-0.66797-1.0508-0.28516-0.35938-0.70703-0.5625-1.1523-0.5625h-1.4922c-0.44531 0-0.86328 0.20312-1.1523 0.5625z"/>
  <path d="m670.95 616.37c-0.16016 0.24609-0.34766 0.51562-0.51953 0.76953h1.4648c-0.17578-0.25-0.35938-0.52344-0.51953-0.76953z"/>
  <path d="m665.65 623.38h10.734l-0.20312-0.24219h-10.324z"/>
  <path d="m661.65 629.9h19.215l-3.9375-5h-11.477z"/>
  <path d="m658.37 631.42-1.1211 1.2422h27.828l-1.1172-1.2422z"/>
  <path d="m651.37 639.18h39.586l-1.1055-1.2305h-37.375z"/>
  <path d="m646.6 644.46-1.1172 1.2422h51.371l-1.1211-1.2422z"/>
  <path d="m703.11 643.68 2.4258-2.6875h2.5781v-0.96484h-5.707v4.4297l0.28125-0.3125z"/>
  <path d="m708.11 638.14h-6.4258l0.3125 0.36719h5.7812z"/>
  <path d="m702.41 645.2h0.28125v2.168h-0.28125z"/>
  <path d="m734.52 648.88h-34.055l-0.52344 0.58203h2.3359l0.27734 0.30469 0.26562 0.29688h33.367v-1.1836z"/>
  <path d="m657.7 683.08v-3.1953h-114.15v6.2109h114.15z"/>
  <path d="m557.3 646.17v3.2891h2.8438v-9.4336h-5.7109v2.957l2.4453 2.7188z"/>
  <path d="m570.06 649.37h29.238l0.43359-1.418 0.43359 1.418h31.039v-2.7812h-61.145z"/>
  <path d="m576.8 639.12h47.668v2.7969h-47.668z"/>
  <path d="m583.53 631.67h34.215v2.7969h-34.215z"/>
  <path d="m601.49 612.39h0.19141c-0.24219-0.34766-0.51953-0.75-0.74609-1.0977h-0.60156c-0.22656 0.34766-0.50391 0.75-0.74609 1.0977z"/>
  <path d="m598.38 614.59c-0.71094 0.89062-0.78516 1.1914-0.78906 1.2617-0.019532 0.26953 0.09375 0.53125 0.33984 0.78516 0.55469 0.57422 1.6094 0.91797 2.6797 0.88281h0.054687c1.0703 0.039062 2.125-0.30859 2.6758-0.88281 0.24609-0.25391 0.35938-0.51953 0.33984-0.78516-0.003907-0.070313-0.078126-0.37109-0.78906-1.2617-0.34766-0.4375-0.85938-0.6875-1.4023-0.6875l-1.707 0.003906c-0.54297 0-1.0547 0.25-1.4023 0.68359z"/>
  <path d="m594.42 619.54h12.754l-0.42188-0.49219h-11.91z"/>
  <path d="m589.31 627h22.43l-4.5156-5.9414h-13.238z"/>
  <path d="m585.95 628.51-1.4766 1.6406h32.324l-1.4766-1.6406z"/>
  <path d="m577.75 637.61h45.777l-1.4609-1.625h-42.855z"/>
  <path d="m572.48 643.43-1.4766 1.6406h59.258l-1.4766-1.6406z"/>
  <path d="m639.59 652.22h31.062l0.37891-1.2383h-30.316z"/>
  <path d="m736.19 651.58h-31.992l0.58203 0.64062 0.42188 0.46484 0.95312 1.0508h-0.95312v2.3516h30.988z"/>
  <path d="m680.19 660.26h29.383v2.2539h-29.383z"/>
  <path d="m523.35 664.03v10.773h9.8945v-3.3828h0.003906v-7.3906h-0.97656v9.7852h-7.9453v-9.7852z"/>
  <path d="m496.63 655.99h28.18l1.125-2.2539h-29.305z"/>
  <path d="m676.26 657.5 0.61719 1.2422h31.746l-1.0273-1.1406h-0.015625l-0.085937-0.10156z"/>
  <path d="m665.55 664.03h-19.352v0.26953h3.4609l0.24609 0.26953 0.64062 0.69922h15.004z"/>
  <path d="m551.4 664.54 0.21875-0.24219h3.4648v-0.26953h-20.312v1.2383h15.965z"/>
  <path d="m590.42 661.5h-33.824v2.7969h33.824z"/>
  <path d="m557.75 657.5h-25.074l0.62109 1.2422h23.332z"/>
  <path d="m598.73 654.25-3.125 6.25h8.2539l-3.125-6.25z"/>
  <path d="m672.77 653.91h-1.6367l-2.6367 5.2734h6.9062z"/>
  <path d="m646.2 660.45v2.0625h17.645v-2.2539h-17.645z"/>
  <path d="m644.68 664.03v-2.5273h-35.773v2.7969h35.773z"/>
  <path d="m607.39 664.3v-2.2852h-1.0742v0.003906h-13.164v-0.003906h-1.2148v2.2852z"/>
  <path d="m667.64 657.5h-24.113l1.1211 1.2422h22.371z"/>
  <path d="m643.72 659.99-1.1289-1.2422h0.007812l-0.34375-0.38281h-37.766l0.8125 1.625z"/>
  <path d="m594.98 658.36h-35.957l-0.34766 0.38281h0.007813l-1.1289 1.2422h36.613z"/>
  <path d="m549.82 668.97h42.551v5.5234h-42.551z"/>
  <path d="m548.33 668.97 0.011719-1.0547 0.41797-0.46094 0.60156-0.66797h-14.594v4.6328h13.535z"/>
  <path d="m592.37 665.82h-40.078l-1.4844 1.6406h41.562z"/>
  <path d="m606.95 667.46h43.516l-1.4844-1.6406h-42.031z"/>
  <path d="m651.38 671.42 0.027344-2.4492h-44.457v5.5234h44.402l0.011719-1.5547 0.007812-0.6875z"/>
  <path d="m678.67 662.51v-1.8086h-0.8125v0.003906h-11.816v-0.003906h-0.6875v1.8086z"/>
  <path d="m675.5 655.99h28.184v-2.2539h-29.312z"/>
  <path d="m669.53 653.73h-30.059v2.2539h28.93z"/>
  <path d="m637.95 655.99v-1.9375h-35.617l1.3984 2.793h34.219z"/>
  <path d="m563.32 655.99v0.85547h32.414l1.3984-2.793h-33.812z"/>
  <path d="m561.68 655.99v-2.2539h-30.891l1.125 2.2539z"/>
  <path d="m527.55 653.91-2.6367 5.2734h6.9062l-2.6367-5.2734z"/>
  <path d="m555.08 662.52v-2.2539h-18.605v2.2539z"/>
  <path d="m592.37 678.37v-2.3477h-42.594v0.003907h-8.5742v2.3398h2.3438v0.003907z"/>
  <path d="m593.89 665.82v12.551h11.547v-12.551h-1.3398v11.199h-8.8672v-11.199z"/>
  <path d="m657.7 678.36h0.48438v-2.3398h-6.8477v-0.003907h-44.387v2.3477h50.75z"/>
  <path d="m652.9 671.42h12.645v-4.6328h-13.637l0.60547 0.66797 0.42188 0.46875-0.007812 1.0469z"/>
  <path d="m667.06 664.03v10.773h9.9023v-10.773h-0.98047v9.7852h-7.9414v-9.7852z"/>
  <path d="m678.48 665.27h36.027l-1.1172-1.2383h-34.91z"/>
  <path d="m672.87 650.98 0.37891 1.2383h29.488l-0.58203-0.64062-0.22266-0.24219-0.32031-0.35547z"/>
  <path d="m600.63 650.89 0.50391 1.6367h35.859l-0.28516-0.3125h0.007812l-1.1992-1.3242z"/>
  <path d="m564.27 652.53h34.059l0.50391-1.6367h-33.078z"/>
  <path d="m529.66 652.22h31.07l-1.125-1.2383h-30.324z"/>
  <path d="m497.58 652.22h29.492l0.37891-1.2383h-28.754z"/>
  <path d="m464.12 656.09h27.918l3.0742-0.097657v-3.3047l0.41797-0.46484 0.57812-0.64062h-31.988z"/>
  <path d="m495.12 657.5h-2.293l-0.085938 0.10156h-0.015625l-0.17188 0.19141-0.85547 0.94922h31.738l0.62109-1.2422z"/>
  <path d="m534.96 662.51v-1.8086h-0.69141l0.003907 0.003906h-11.816v-0.003906h-0.8125v1.8086z"/>
  <path d="m521.83 664.03h-34.906l-1.1211 1.2383h36.027z"/>
  <path d="m484.85 667.5h-0.007812l-0.042969 3.9297h37.031v-4.6367h-36.98z"/>
  <path d="m479.34 674.8h42.492v-1.8594h-44.543v1.8594z"/>
  <path d="m539.68 674.5h8.5977l0.011718-1.5625h-13.52v1.8633h4.9102z"/>
  <path d="m659.71 674.8h5.8359v-1.8633h-12.656l-0.015625 1.5625h6.8359z"/>
  <path d="m722.48 674.8h0.53906v-1.8594h-44.543v1.8594z"/>
  <path d="m715.46 667.5h-0.007813v-0.70703h-36.973v4.6367h37.023z"/>
  <path d="m644.54 649.46h26.965l0.44922-1.4727 0.45312 1.4727h25.391v-2.2422h-53.258z"/>
  <path d="m646.37 642.95v-2.918h-5.7148v9.4336h2.3594v-3.2891l0.42188-0.46875 2.4844-2.7578z"/>
  <path d="m647.09 638.14h-7.1602l0.31641 0.375h6.5273z"/>
  <path d="m640.66 617.57h5.7148v7.4883h-5.7148z"/>
  <path d="m639.93 626.95h7.1602l-0.31641-0.375h-6.5273z"/>
  <path d="m637.86 616.05h11.312l1.2227-2.1016h-13.758z"/>
  <path d="m637.42 611.6v0.83594h12.184v-0.83594z"/>
  <path d="m653.66 599.55h-20.293l1.7617 2.0977h16.777z"/>
  <path d="m651.12 604h0.37891v-0.83203h-15.973v0.83203z"/>
  <path d="m647.88 606.35h1.7227v-0.83203h-12.184v0.83203z"/>
  <path d="m640.66 607.86h5.707v2.2227h-5.707z"/>
  <path d="m632.5 594.52h22.023v3.5078h-22.023z"/>
  <path d="m630.98 594.52h-61.172v4.543l-0.40234 0.48438-2.6172 3.1328v2.8359h-1.8945v2.3516h-3.2383v2.2227h2.2109c9.5273-7.8047 22.922-12.277 36.801-12.277 13.738 0 26.605 4.3594 36.262 12.277h2.2109v-2.2305h-3.2383v-2.3516h-1.8945v-2.832l-2.625-3.1328-0.40625-0.48438v-1.0352z"/>
  <path d="m567.43 599.55h-20.293l1.7578 2.0977h16.781z"/>
  <path d="m564.89 604h0.375v-0.83203h-15.969v0.83203z"/>
  <path d="m561.66 606.35h1.7227v-0.83203h-12.184v0.83203z"/>
  <path d="m554.43 607.86h5.707v2.2227h-5.707z"/>
  <path d="m546.27 594.52h22.023v3.5078h-22.023z"/>
  <path d="m551.2 611.6v0.83594h12.184v-0.83594z"/>
  <path d="m551.63 616.05h11.312l1.2188-2.1016h-13.754z"/>
  <path d="m554.43 617.57h5.7148v7.4883h-5.7148z"/>
  <path d="m553.71 626.95h7.1562l-0.31641-0.375h-6.5234z"/>
  <path d="m560.55 638.51 0.31641-0.375h-7.1562l0.31641 0.375z"/>
  <path d="m464.12 650.06h33.355l0.32031-0.35547 0.22266-0.24609h2.3516l-0.52734-0.58203h-35.723z"/>
  <path d="m497.62 647.36h0.78516v-7.3359h-5.7148v0.96484h2.0977l2.4141 2.6875 0.41797 0.46484z"/>
  <path d="m499.12 638.14h-6.9375l0.33594 0.375h6.2812z"/>
  <path d="m465.79 645.2h30.309v2.168h-30.309z"/>
  <path d="m451.3 645.64v1.7266h12.969v-1.7266h-12.223 0.003907z"/>
  <path d="m490.68 657.61h-26.551v1.7773h24.949l0.15234-0.17187v-0.003907l0.41797-0.46094z"/>
  <path d="m542.03 679.88h-2.3477v-3.5586h-60.34v5.2383h62.688z"/>
  <path d="m720.96 676.32h-61.258v3.5586h-0.48438v1.6797h61.742z"/>
  <path d="m711.24 659.38h24.949v-1.7773h-26.551l1.0273 1.1406 0.41797 0.46094v0.003907z"/>
  <path d="m737.71 648.88v10.496h9.6367v-10.496h-0.92188v9.5625h-7.793v-9.5625z"/>
  <path d="m704.2 645.2h30.32v2.168h-30.32z"/>
  <path d="m738.23 642.51h-32.016l-1.0586 1.168h32.492z"/>
  <path d="m740.06 638.84h-30.117v2.1523h29.039z"/>
  <path d="m709.71 636.37v-7.8984h-8.9102v8.1523h8.6797z"/>
  <path d="m699.6 616.05h11.312l1.2227-2.1016h-13.758z"/>
  <path d="m699.16 611.6v0.83594h12.184v-0.83594z"/>
  <path d="m702.4 607.86h5.707v2.2227h-5.707z"/>
  <path d="m709.62 606.35h1.7227v-0.83203h-12.184v0.83203z"/>
  <path d="m713.24 604v-0.83203h-15.973v0.83203z"/>
  <path d="m696.87 601.64h16.777l1.7539-2.0977h-20.293z"/>
  <path d="m484.53 594.52h22.023v3.5078h-22.023z"/>
  <path d="m503.93 601.64 1.7539-2.0977h-20.293l1.7578 2.0977z"/>
  <path d="m503.53 604v-0.83203h-15.973v0.83203z"/>
  <path d="m501.64 606.35v-0.83203h-12.184v0.83203z"/>
  <path d="m492.69 607.86h5.707v2.2227h-5.707z"/>
  <path d="m489.45 611.6v0.83594h12.184v-0.83594z"/>
  <path d="m502.42 613.95h-13.758l1.2227 2.1016h11.312z"/>
  <path d="m492.69 617.57h5.7148v7.4883h-5.7148z"/>
  <path d="m491.96 626.95h7.1602l-0.32031-0.375h-6.5234z"/>
  <path d="m490.36 640.99v-2.1523h-30.109l1.0781 2.1523z"/>
  <path d="m495.16 643.68-1.0469-1.168h-32.023l0.58594 1.168z"/>
  <path d="m417.39 648.88-1.0703 1.1836h35.129v-1.1836z"/>
  <path d="m415.35 651.58h36.109v4.5h-36.109z"/>
  <path d="m407.98 657.59v1.7812h43.469v-1.7695h-37.652v-0.011719z"/>
  <path d="m409.99 665.98h73.121l0.22266-0.24219v-0.007812l0.41797-0.46094 2.5-2.7578h2.9766v-1.6133h-79.238z"/>
  <path d="m407.99 667.5v5.082h67.773v-1.1562h7.5195l0.035156-3.9258z"/>
  <path d="m477.28 683.08v5.2383h62.398v-2.2227h0.007812v-0.003906h2.3398v-3.0117z"/>
  <path d="m723.02 688.32v-5.2383h-63.801v3.0117h2.3516v0.003906h0.003906v2.2227z"/>
  <path d="m792.33 672.58v-5.082h-75.344l0.035156 3.9258h7.5195v0.007813h0.003907v1.1484z"/>
  <path d="m711.09 660.9v1.6133h2.9805l2.4883 2.7578 0.41406 0.46094 0.003906 0.003906v0.003906l0.21875 0.24219h73.121v-5.082z"/>
  <path d="m748.86 651.58h36.105v4.5h-36.105z"/>
  <path d="m750.53 648.88h-1.668v1.1836h35.133l-1.0664-1.1836z"/>
  <path d="m741.68 639-2.5547 5.1133h6.6875l-2.5586-5.1133z"/>
  <path d="m741.55 636.14h-29.582l-1.0703 1.1836h30.289z"/>
  <path d="m767.69 632.47h-51.984v2.1523h26.309l0.45312-1.4805 0.45312 1.4805h24.77z"/>
  <path d="m763.45 629.77h-45.738l-1.0625 1.1797h50.094l-1.0625-1.1797z"/>
  <path d="m721.46 626.09h40.473v2.1641h-40.473z"/>
  <path d="m722.4 624.58h38.586l-1.0508-1.168h-36.484z"/>
  <path d="m727.2 619.73h28.988v2.1641h-28.988z"/>
  <path d="m739.86 605.11c-0.57422 0.71875-0.64453 0.96094-0.64844 1.0195-0.015625 0.19531 0.074219 0.39062 0.25781 0.58594 0.45312 0.46875 1.3125 0.75 2.2031 0.71875h0.054687c0.89062 0.03125 1.75-0.25 2.2031-0.71875 0.1875-0.19531 0.27344-0.39062 0.25781-0.58594-0.007813-0.054687-0.074219-0.29688-0.64844-1.0156-0.27734-0.34375-0.67969-0.54297-1.1094-0.54297h-1.457c-0.42969-0.003906-0.83594 0.19531-1.1133 0.53906z"/>
  <path d="m741.5 602.34c-0.14844 0.22656-0.32031 0.48047-0.48438 0.71484h1.3594c-0.16406-0.23438-0.33594-0.48828-0.48438-0.71484z"/>
  <path d="m736.35 609.15h10.406l-0.17187-0.19922h-10.066z"/>
  <path d="m732.44 615.52h18.695l-3.8164-4.8477h-11.195z"/>
  <path d="m729.38 617.04h-0.17188l-1.0586 1.1758h27.098l-1.0625-1.1758z"/>
  <path d="m776.22 604.57h-23.047l2.418 4.1484h18.219z"/>
  <path d="m754.73 600.88v2.168h19.945v-2.168z"/>
  <path d="m759.8 595.03h9.8047v4.3398h-9.8047z"/>
  <path d="m774.68 591.34h-19.945v2.168h19.945z"/>
  <path d="m777.64 589.83v-2.168h-25.883v2.168z"/>
  <path d="m781.52 582h-33.637l3.4766 4.1484h26.691z"/>
  <path d="m745.5 574.12h-34.25v2.418l3.3398 3.5977c0.21094-0.003907 0.42187-0.003907 0.625-0.003907 14.965 0 28.957 6.832 39.438 19.238h3.6328v-4.3398h-5.0703v-3.6836h-2.9688v-4.168l-4.3438-5.1836-0.40625-0.48438v-1.0352z"/>
  <path d="m418.45 574.12h35.363v6.3555h-35.363z"/>
  <path d="m449.48 586.14 3.4688-4.1484h-33.637l3.4766 4.1484z"/>
  <path d="m447.63 589.83h1.4492v-2.168h-25.879v2.168z"/>
  <path d="m446.11 593.51v-2.168h-19.949v2.168z"/>
  <path d="m431.24 595.03h9.8047v4.3398h-9.8047z"/>
  <path d="m426.16 603.05h19.949v-2.168h-19.949z"/>
  <path d="m424.61 604.57 2.4219 4.1484h18.215l2.4102-4.1484z"/>
  <path d="m445.07 618.21h27.098l-1.0586-1.1758h-24.98z"/>
  <path d="m456.78 605.11c-0.57422 0.71875-0.64453 0.96094-0.65234 1.0195-0.015625 0.19531 0.074219 0.39062 0.25781 0.58594 0.45312 0.46875 1.3164 0.75 2.2031 0.71875h0.054687c0.88672 0.03125 1.75-0.25 2.2031-0.71875 0.1875-0.19531 0.27344-0.39062 0.25781-0.58594-0.007813-0.054687-0.074219-0.29688-0.64844-1.0156-0.27734-0.34375-0.67969-0.54297-1.1094-0.54297h-1.457c-0.42969-0.003906-0.83594 0.19531-1.1094 0.53906z"/>
  <path d="m458.42 602.34c-0.14844 0.22656-0.32031 0.48047-0.48438 0.71484h1.3594c-0.16406-0.23438-0.33594-0.48828-0.48438-0.71484z"/>
  <path d="m453.55 609.15h10.41l-0.17188-0.19922h-10.066z"/>
  <path d="m449.18 615.52h18.699l-3.6875-4.8477h-11.191z"/>
  <path d="m444.12 619.73h28.988v2.1641h-28.988z"/>
  <path d="m439.7 621.89h1.3477v-11.66h-9.8203v12.594h7.6328z"/>
  <path d="m439.33 624.58h38.582l-1.0469-1.168h-36.488z"/>
  <path d="m438.38 626.09h40.473v2.1641h-40.473z"/>
  <path d="m434.63 629.77-1.0586 1.1797h50.09l-1.0586-1.1797z"/>
  <path d="m459.13 637.32h30.164l-0.59375-0.70703h0.082031l-0.42969-0.47656h-29.582z"/>
  <path d="m461.2 644.12-2.5586-5.1133h-1.5742l-2.5547 5.1133z"/>
  <path d="m423.14 642.51-1.0586 1.168h30.953l0.58203-1.168z"/>
  <path d="m373.07 690.97h14.012v12.887h-14.012z"/>
  <path d="m386.21 705.38h-12.262l1.0977 1.3008h10.066z"/>
  <path d="m375.45 674.74h9.2539v11.895h-9.2539z"/>
  <path d="m373.95 689.46h12.262l-1.0977-1.3008h-10.066z"/>
  <path d="m389.52 669.36v-0.003906h-20.336l2.2539 3.8711h17.27l2.2539-3.8672z"/>
  <path d="m389.52 655.27v-0.003906h2.8125v-1.9805h-24.527v1.9844z"/>
  <path d="m389.52 658.77v-1.9883h-18.887v1.9883z"/>
  <path d="m375.45 660.29h9.2422v4.0508h-9.2422z"/>
  <path d="m370.63 665.85v1.9883h18.887v-1.9883z"/>
  <path d="m395.98 647.89h-31.82l3.2422 3.8672h25.332z"/>
  <path d="m364.91 651.15h-19.098v1.5508h20.398z"/>
  <path d="m348.29 662.18v1.5547h16.375v-1.5547z"/>
  <path d="m352.52 657.3h7.918v3.3633h-7.918z"/>
  <path d="m352.52 655.78h12.148v-1.5547h-16.375v1.5547z"/>
  <path d="m347.09 665.25 1.8711 3.207h15.039l1.8633-3.207z"/>
  <path d="m352.51 669.97h7.9258v10.242h-7.9258z"/>
  <path d="m351.3 682.69h10.352l-0.80859-0.95703h-8.7383z"/>
  <path d="m361.65 696.83h-10.352l0.80469 0.95312h8.7383z"/>
  <path d="m352.51 699.3h7.9258v14.379h-7.9258z"/>
  <path d="m348.29 716.75h16.383v-1.5547h-16.383z"/>
  <path d="m306.07 718.07h38.227v1.3516h-38.227z"/>
  <path d="m345.81 718.27v1.5586h21.324v-1.5586z"/>
  <path d="m375.45 708.19h9.2539v16.613h-9.2539z"/>
  <path d="m404.33 726.27h-13.285v1.7656h14.316z"/>
  <path d="m429.86 723.59h-25.336l2.7148 4.6523h19.906z"/>
  <path d="m458.07 695.18c3.0469 0 6.0273 0.48828 8.8594 1.4492l6.9141-6.1875h-35.809v8.0859l-0.40625 0.48438-4.7656 5.6875v4.4961h-3.2266v4.0117h-5.5273v4.8516h5.5273v4.0117h0.79297c0.40234-14.895 12.648-26.891 27.641-26.891z"/>
  <path d="m465.41 705.06h42.648v0.003906h19.516l12.102-10.816v-4.418h-62.852l-0.46484 0.41406v0.003906l-0.21484 0.19531h-0.007813l-16.352 14.621h5.625z"/>
  <path d="m501.66 720.16 2.5977-3.1016 1.4219-1.6992h-37.879l4.0195 4.8008z"/>
  <path d="m497.94 724.26h3.3125v-2.5898h-29.031v2.5898z"/>
  <path d="m497.94 728.37v-2.5898h-22.41v2.5898z"/>
  <path d="m481.18 729.89h11.102v5.0117h-11.102z"/>
  <path d="m475.53 739h22.41v-2.5859h-5.6523v-0.003907h-16.758z"/>
  <path d="m500.31 739.01c0.30469-11.355 7.375-21.426 17.906-25.57l7.668-6.8516h-17.82v8.2891l-2.6406 3.1484-2.6523 3.1758v4.582h-3.3086v4.1094h-5.6523v5.0078h5.6562v4.1094z"/>
  <path d="m668.39 703.51-9.1289-8.1641h-118.53l-10.871 9.7227-1.4883 1.332-0.20703 0.1875-7.1562 6.3945h157.98l-5.4961-4.9141-1.6562-1.4805h-0.003906l-0.37109-0.33594-1.3242-1.1836z"/>
  <path d="m692.25 713.84v-7.2539h-18.133l1.1406 1.0195 6.293 5.625c10.828 4.0078 18.137 14.23 18.445 25.781h0.85937v-4.1094h5.6562v-5.0078h-5.6484v-0.003906h-0.003906v-4.1055h-3.3086v-4.582l-4.8906-5.8398-0.40234-0.48047-0.003906-0.003906z"/>
  <path d="m625.11 714.5h45.523v8.5234h-45.523z"/>
  <path d="m634.95 748.62v3.1836h25.859v-3.1836z"/>
  <path d="m641.42 741.16h12.922v5.9531h-12.922z"/>
  <path d="m660.81 739.64v-3.1797h-25.859v3.1797z"/>
  <path d="m664.6 731.76h-33.43v3.1797h33.43z"/>
  <path d="m669.77 724.54h-43.793l4.7852 5.7109h34.234z"/>
  <path d="m529.35 714.5h45.539v8.5234h-45.539z"/>
  <path d="m569.77 729.61 4.2539-5.0742h-43.805l4.7812 5.7109h34.238z"/>
  <path d="m565.05 734.94h3.7812v-3.1797h-33.426v3.1797z"/>
  <path d="m565.05 739.64v-3.1797h-25.859v3.1797z"/>
  <path d="m545.66 741.16h12.922v5.9531h-12.922z"/>
  <path d="m539.19 748.62v3.1836h25.859v-3.1836z"/>
  <path d="m623.6 723.02v-8.5234h-47.195v9.5586l-0.40625 0.48437-5.2422 6.2539-0.41016 0.48828v5.1797h-3.7852v4.6992h-6.4688v5.9531h6.4688v4.6992h1.1914c0.40234-17.441 14.711-31.504 32.238-31.504 17.535 0 31.848 14.062 32.254 31.504h1.1914v-4.6992h6.4688v-5.9531h-6.4688v-4.6992h-3.7852v-5.1797l-5.6523-6.7422-0.40625-0.48437z"/>
  <path d="m662.94 753.32h-30.121l3.3281 5.7109h23.477z"/>
  <path d="m655.86 806.57h50.637v2.4258h-50.637z"/>
  <path d="m641.41 760.55h12.934v16.477h-12.934z"/>
  <path d="m639.1 780.81h17.566l-1.9102-2.2617h-13.746z"/>
  <path d="m706.11 764.36h14.945l-1.5117-1.7852h-11.926z"/>
  <path d="m708.02 746.84h11.113v14.211h-11.113z"/>
  <path d="m726.57 740.52h-24.199v0.007812h-1.793l2.793 4.793h20.402z"/>
  <path d="m708.03 736.42h-5.6562v2.5859h22.41v-2.5898h-16.754z"/>
  <path d="m708.03 729.89h11.098v5.0117h-11.098z"/>
  <path d="m724.79 725.78h-22.41v2.5898h22.41z"/>
  <path d="m728.09 721.67h-29.031v2.5898h29.031z"/>
  <path d="m732.52 715.36h-37.883l4.0195 4.8008h29.84z"/>
  <path d="m693.77 706.59h39.617v7.2539h-39.617z"/>
  <path d="m740.52 705.07-15.5-13.867-0.84375-0.75391-0.15625-0.14062-0.53125-0.47266h-61.91v5.5078h-0.003906v0.003906h-0.027344l7.457 6.6719 3.4141 3.0508h19.832v-0.003906h42.652v0.003906z"/>
  <path d="m769.87 722.07h0.80469v-4.0117h0.003907v-0.003906h5.5117v-4.8516h-5.5117v-0.003906h-0.003907v-4.0078h-3.2383v-4.4961l-4.7656-5.6875-0.39453-0.47266-0.007813-0.007812v-8.0859h-35.812l6.9258 6.1914c2.8359-0.96484 5.8164-1.4531 8.8672-1.4531 14.98 0 27.219 11.996 27.621 26.891z"/>
  <path d="m793.07 728.25 2.7109-4.6484h-25.328l2.7109 4.6484z"/>
  <path d="m810.23 728.03v-1.7656h-14.242l-1.0312 1.7656z"/>
  <path d="m814.19 690.97h14.012v12.887h-14.012z"/>
  <path d="m827.32 705.38h-12.262l1.0977 1.3008h10.066z"/>
  <path d="m816.57 674.74h9.2539v11.895h-9.2539z"/>
  <path d="m815.06 689.46h12.262l-1.0977-1.3008h-10.066z"/>
  <path d="m816.57 708.19h9.2539v16.613h-9.2539z"/>
  <path d="m838.74 684.2h12.102v11.113h-12.102z"/>
  <path d="m854.5 715.2h43.168v1.3516h-43.168z"/>
  <path d="m856.97 718.07h38.227v1.3516h-38.227z"/>
  <path d="m836.6 716.75h16.383v-1.5547h-16.383z"/>
  <path d="m840.83 699.3h7.9258v14.379h-7.9258z"/>
  <path d="m849.97 696.83h-10.352l0.80469 0.95312h8.7422z"/>
  <path d="m840.83 669.97h7.9258v10.242h-7.9258z"/>
  <path d="m839.62 682.69h10.352l-0.80469-0.95703h-8.7422z"/>
  <path d="m835.41 665.25 1.8633 3.207h15.039l1.8711-3.207z"/>
  <path d="m848.75 662.18h-12.148v1.5547h16.375v-1.5547z"/>
  <path d="m840.83 657.3h7.918v3.3633h-7.918z"/>
  <path d="m852.98 655.78v-1.5547h-16.375v1.5547z"/>
  <path d="m855.45 651.15h-19.098l-1.3008 1.5508h20.398z"/>
  <path d="m830.64 658.77v-1.9883h-18.891v1.9883z"/>
  <path d="m833.46 655.27v-1.9844h-24.527v1.9805h2.8125v0.003906z"/>
  <path d="m837.11 647.89h-31.82l3.2422 3.8672h25.336z"/>
  <path d="m816.57 660.29h9.2422v4.0508h-9.2422z"/>
  <path d="m811.75 665.85v1.9883h18.891v-1.9883z"/>
  <path d="m835.09 718.27h-0.95313v1.5586h21.324v-1.5586z"/>
  <path d="m896.71 718.27v1.5586h21.324v-1.5586z"/>
  <path d="m899.19 716.75h16.379v-1.5547h-16.379z"/>
  <path d="m903.41 699.3h7.9258v14.379h-7.9258z"/>
  <path d="m912.55 696.83h-10.348l0.80469 0.95312h8.7383z"/>
  <path d="m903.41 669.97h7.9258v10.242h-7.9258z"/>
  <path d="m902.2 682.69h10.348l-0.80469-0.95703h-8.7383z"/>
  <path d="m897.99 665.25 1.8633 3.207h15.043l1.8672-3.207z"/>
  <path d="m899.2 662.18v1.5547h16.363v-1.5547z"/>
  <path d="m903.43 657.3h7.9102v3.3633h-7.9102z"/>
  <path d="m903.43 655.78h12.137v-1.5547h-16.363v1.5547z"/>
  <path d="m899.2 652.71h18.84v-1.5547h-21.316v1.5547z"/>
  <path d="m920.04 647.73 1.0938-1.3047h-27.496l2.6875 3.207h22.121z"/>
  <path d="m891.25 639.87h-30.32v6.0859l-0.40625 0.48047-2.9336 3.4961-0.61719 0.73437v3.5547h-2.4727v3.0703h-4.2266v3.3633h4.2266v3.0703h0.26172c0.40234-11.422 9.8164-20.59 21.336-20.59 11.512 0 20.926 9.168 21.328 20.59h0.25v-3.0703h4.2305v-3.3633h-4.2305v-3.0703h-2.4766v-3.5547l-3.543-4.2383-0.40234-0.48438v-1.0352z"/>
  <path d="m856.29 649.12 2.2461-2.6836h-18.234l-0.81641 0.97266-0.40234 0.48438-1.457 1.7383h18.23z"/>
  <path d="m804.42 640.41h33.555v5.9648h-33.555z"/>
  <path d="m811.75 669.36v0.003906h-1.4414l2.2539 3.8672h17.27l2.2539-3.8711z"/>
  <path d="m750.53 645.2h28.664v2.168h-28.664z"/>
  <path d="m747.29 643.68h30.953l-1.0547-1.168h-30.484z"/>
  <path d="m745.94 640.99h27.508v-2.1523h-28.586z"/>
  <path d="m743.38 636.14 0.35938 1.1836h28.754l-1.0664-1.1836z"/>
  <path d="m763.45 628.26h2.9062l2.8477 3.1641v3.2031h2.8984l0.003907 0.003906v-7.3281h-8.6562z"/>
  <path d="m762.82 624.34 0.20703 0.23438 0.42188 0.46484 0.66797 0.74219h7.1133l-1.2188-1.4414z"/>
  <path d="m776.19 603.05h2.6641l-4.1719 7.1836h-3.5625v8.625h37.074v-6.6758c0-0.44141 0.074219-0.86719 0.20703-1.2695 0.003906-0.007812 0.007812-0.015624 0.007812-0.023437 0.039063-0.11719 0.085938-0.23438 0.13672-0.34766 0.011719-0.027344 0.027344-0.054688 0.039063-0.082031 0.042968-0.089844 0.089843-0.18359 0.14062-0.26953 0.023438-0.039062 0.046876-0.078125 0.070313-0.11719 0.042969-0.074219 0.089844-0.14453 0.13672-0.21094 0.03125-0.046875 0.066406-0.09375 0.10156-0.13672 0.042969-0.058593 0.085938-0.11328 0.13281-0.16797 0.042969-0.050782 0.089843-0.10156 0.13672-0.15234 0.042968-0.042969 0.082031-0.085938 0.125-0.12891 0.027343-0.027344 0.050781-0.054688 0.082031-0.082032v-3.3359h0.003906v-0.003906h3.1758v-4.4609h-36.5z"/>
  <path d="m814.21 601.39h5.5781v4.4648h-5.5781z"/>
  <path d="m820.2 599.88 0.28516-0.33984h-6.9688l0.28516 0.33984z"/>
  <path d="m813.52 588.53h6.9688l-0.28906-0.33984h-6.3945z"/>
  <path d="m814.21 584.09h5.5742v2.5859h-5.5742z"/>
  <path d="m821.3 582.57h0.45703v-0.51562h-9.5234v0.51562z"/>
  <path d="m823.29 580.54v-0.51562h-12.578v0.51562z"/>
  <path d="m809.07 576.9 1.2539 1.6094h13.352l1.2578-1.6094z"/>
  <path d="m679.11 547.6v1.5469h5.9453l6.4258 5.4727 0.48047 0.40625v5.0625h5.9336l6.4258 5.4688h0.48047v0.40625l1.3008 1.1094h-1.3008v3.9609h6.4453v1.5664h84.523l-23.199-25z"/>
  <path d="m786.5 560.37v-0.23438h41.941v-3.4102h-45.324z"/>
  <path d="m827.16 550.96h-47.266v-0.003907h-2.1406l4.1523 4.4766v-0.22266h45.254z"/>
  <path d="m791.15 542.83h31.336v3.7344h-31.336z"/>
  <path d="m781.42 540.47v8.9688h8.2188v-8.9688h-0.61328v8.3516h-6.9961v-8.3516z"/>
  <path d="m784.85 531.85-2.1367 4.2734h5.5273l-2.1367-4.2734z"/>
  <path d="m763.09 529.61h0.48047v0.40625l0.20703 0.17578h20.508l0.25781-0.83594h-21.754z"/>
  <path d="m762.45 523.13 0.77344-0.85547h2.4883v-2.3242h-5.918v3.1797z"/>
  <path d="m751.3 512.51h20.738l1.2227-1.3555h1.7422l1.2773-1.6797h-28.141z"/>
  <path d="m770.73 515.46v-1.4375h-18.969v1.4375z"/>
  <path d="m766.7 518.44 1.3086-1.4531h-13.273v1.4531z"/>
  <path d="m768.92 518.23-0.74219 0.82812h33.254l-0.74219-0.82812z"/>
  <path d="m772.24 515.02h25.117v1.6992h-25.117z"/>
  <path d="m776.91 511.15h15.93l-3.1797-4.0391h-9.6797z"/>
  <path d="m747.02 503.14v4.8086h30.422l0.64062-0.84375 1.9492-3.0156h1.4648c-0.17578-0.29688-0.27344-0.62109-0.28125-0.95312z"/>
  <path d="m745.5 503.14h-22.188v0.75391h9.5898l10.066 8.5703 0.48047 0.40625 0.28906 1.1094c4.7578 2.3984 9.125 5.4727 12.996 9.1523h1.5508v-3.1836h-5.0703l-0.003906-2.9688h-2.9688v-3.3906l-4.2891-4.1211-0.45312-0.43359z"/>
  <path d="m627.22 499.89 0.48047 0.41016v3.5938h94.09v-7.0508h-98.152z"/>
  <path d="m703.15 488.25h-87.91l1.6641 1.4844c0.83203 0.74219 0.97266 1.9844 0.32812 2.8945l-0.058594 0.082032c-0.47266 0.66406-1.043 1.2383-1.6797 1.7148h5.3047l1.0625 0.90234h98.637l-8.3164-7.082z"/>
  <path d="m488.53 488.25-8.293 7.082h98.625l1.0625-0.90234h5.2617c-0.64062-0.47656-1.2109-1.0508-1.6797-1.7148-0.68359-0.96484-0.48438-2.2812 0.45703-3l1.9102-1.4609h-88.285z"/>
  <path d="m455.33 507.95v1.082l-0.45312 0.43359-4.2891 4.1211v3.3906h-2.957v2.9688l-5.082 0.003906v3.1836h1.4531c3.9492-3.75 8.4141-6.875 13.281-9.293v-0.92578l0.48047-0.44531 10.055-8.5703h9.6016v-0.75391h-22.09z"/>
  <path d="m442.55 518.44h3.5664v-1.4531h-12.852l1.3086 1.4531z"/>
  <path d="m429.23 512.51h20.301l3.1641-3.0352h-27.707l1.2773 1.6797h1.7422z"/>
  <path d="m449.07 515.46v-1.4375h-18.484l-0.046875 0.99219v0.44531z"/>
  <path d="m419.78 504.09h1.8633l2.5703 3.0156h-1.0195l0.64062 0.84375h29.984v-4.8086h-33.758c-0.007813 0.32812-0.10547 0.65234-0.28125 0.94922z"/>
  <path d="m414.39 503.14c0.015625 0.11328 0.078125 0.23047 0.19531 0.35156 0.375 0.39062 1.1016 0.625 1.8516 0.59766h0.054688c0.74609 0.027344 1.4727-0.20703 1.8516-0.59766 0.11328-0.11719 0.17578-0.23438 0.19531-0.35156z"/>
  <path d="m416.05 500.27h0.82031c-0.097656-0.14453-0.19922-0.29297-0.29297-0.42969h-0.23828c-0.089844 0.13672-0.1875 0.28516-0.28906 0.42969z"/>
  <path d="m413.16 504.09c-0.17578-0.29688-0.27344-0.62109-0.28125-0.95312h-2.0508c0.1875 0.39844 0.35547 0.79688 0.50781 1.1992l0.21094-0.24609z"/>
  <path d="m408.43 511.15h15.93l-3.0703-4.0391h-9.6797z"/>
  <path d="m432.35 518.23h-31.77l-0.74219 0.82812h33.254z"/>
  <path d="m438.82 523.13h2.2188v-3.1797h-5.4805v2.3242h2.4883z"/>
  <path d="m416.98 530.19h19.965l0.23047-0.19531 0.44922-0.38672 0.30078-0.25391h-21.203z"/>
  <path d="m415.17 531.85-2.1367 4.2734h5.5273l-2.1367-4.2734z"/>
  <path d="m374.1 550.96v4.25h44.922l3.9492-4.2539h-1.6055v0.003907z"/>
  <path d="m372.83 560.14h41.617l3.168-3.4102h-44.785z"/>
  <path d="m489.48 572.6v-1.5664h6.4492v-5.082l0.46484-0.39453 6.4258-5.4688h5.9492v-5.0742l0.46484-0.39453 6.4258-5.4727h5.9609v-1.5469h-93.465l-23.211 25z"/>
  <path d="m390.95 578.51 1.2539-1.6094h-15.863l1.2578 1.6094z"/>
  <path d="m390.56 580.54v-0.51562h-12.578v0.51562z"/>
  <path d="m389.04 582.05h-9.5234v0.51562h9.5234z"/>
  <path d="m381.48 584.09h5.5742v2.5859h-5.5742z"/>
  <path d="m380.79 588.53h6.9688l-0.28906-0.33984h-6.3906z"/>
  <path d="m381.07 599.88h6.3984l0.28516-0.33984h-6.9688z"/>
  <path d="m381.48 601.39h5.5781v4.4648h-5.5781z"/>
  <path d="m429.71 618.86v-8.625h-3.5508l-4.1875-7.1836h2.6797v-1.6562h-36.074v4.4609h3.1758v0.003906h0.003906v3.3359c0.027344 0.027344 0.054688 0.058594 0.082032 0.085938 0.042968 0.039062 0.082031 0.082031 0.12109 0.12109 0.046874 0.050781 0.09375 0.10156 0.14062 0.15625 0.042969 0.050781 0.085938 0.10547 0.12891 0.16016 0.035156 0.046875 0.074219 0.09375 0.10938 0.14453 0.046875 0.066407 0.089844 0.13672 0.13281 0.20312 0.023438 0.042969 0.050782 0.082032 0.074219 0.125 0.046875 0.085938 0.089844 0.17188 0.13281 0.25781 0.015624 0.03125 0.03125 0.0625 0.042968 0.09375 0.046875 0.10938 0.089844 0.21875 0.12891 0.33203 0.003907 0.011719 0.011719 0.027344 0.015626 0.039062 0.13281 0.39844 0.20703 0.82422 0.20703 1.2656v6.6758z"/>
  <path d="m436.2 625.79 0.66797-0.74219 0.41797-0.46484 0.20703-0.23438h-6.6719l-1.2188 1.4414z"/>
  <path d="m428.73 634.62h2.3828v-3.2031l2.8477-3.1641h2.9102v-0.95703h-8.1406z"/>
  <path d="m456.57 637.32 0.36328-1.1836h-28.043l-1.0703 1.1836z"/>
  <path d="m426.87 640.99h27.504l1.0742-2.1523h-28.578z"/>
  <path d="m398.37 646.38v1.0352l-0.40625 0.48438-4.1094 4.9023v3.9844h-2.8203v3.5078h-4.8242v4.0391h4.8242v3.5117h0.50781c0.40234-13.02 11.109-23.488 24.211-23.488 1.1562 0 2.3125 0.085937 3.4453 0.24609l0.41016-0.45312 0.42188-0.46484 2.4297-2.6836h2.8906v-0.58203h-26.98z"/>
  <path d="m363.3 640.41h33.555v5.9648h-33.555z"/>
  <path d="m361.78 647.41-0.81641-0.97266h-18.234l2.2344 2.668 0.44531 0.52734h18.23l-1.457-1.7383z"/>
  <path d="m279.27 639.87h29.23v5.0469h-29.23z"/>
  <path d="m289.93 655.78h12.137v-1.5547h-16.367v1.5547z"/>
  <path d="m289.93 657.3h7.9102v3.3633h-7.9102z"/>
  <path d="m285.7 662.18v1.5547h16.367v-1.5547z"/>
  <path d="m284.5 665.25 1.8672 3.207h15.043l1.8633-3.207z"/>
  <path d="m289.93 669.97h7.9258v10.242h-7.9258z"/>
  <path d="m288.72 682.69h10.348l-0.80469-0.95703h-8.7383z"/>
  <path d="m299.07 696.83h-10.348l0.80469 0.95312h8.7383z"/>
  <path d="m289.93 699.3h7.9258v14.379h-7.9258z"/>
  <path d="m285.7 716.75h16.383v-1.5547h-16.383z"/>
  <path d="m243.48 718.07h38.234v1.3516h-38.234z"/>
  <path d="m281.19 720.94h-37.191l1.1328 1.3516h34.926z"/>
  <path d="m307.64 724.55-2.6836-3.2031h-22.133l-2.6797 3.2031z"/>
  <path d="m370.22 724.55-2.6797-3.2031h-22.133l-2.6836 3.2031z"/>
  <path d="m370.63 728.31h18.895v-1.9922h-18.895z"/>
  <path d="m367.81 729.83v1.9922h24.535v-1.9922z"/>
  <path d="m410.27 732.83h-15.969l1.4766 1.7656h14.492z"/>
  <path d="m398.37 737.2v0.48438l0.15625 0.1875h11.746v-1.7656h-13.223l0.91797 1.0938z"/>
  <path d="m411.79 729.76h10.82v13.844h-10.82z"/>
  <path d="m424.13 792.86v1.1758h55.535v-2.4258h-55.535z"/>
  <path d="m424.13 796.87v1.1055h55.535v-2.4258h-55.535z"/>
  <path d="m424.13 801.52v0.39844h55.535v-2.4258h-55.535z"/>
  <path d="m424.13 807.38h49.879v2.4258h-49.879z"/>
  <path d="m493.81 825.08h45.199v-0.054687h5.125v-2.3711h-50.324z"/>
  <path d="m493.81 806.88h50.328v2.4258h-50.328z"/>
  <path d="m493.81 812.07v1.1758h50.324v-2.4258h-50.324z"/>
  <path d="m493.81 816.09v1.1055h50.324v-2.4258h-50.324z"/>
  <path d="m493.81 820.74v0.39844h50.324v-2.4258h-50.324z"/>
  <path d="m493.81 826.6h50.328v2.4258h-50.328z"/>
  <path d="m492.29 807.33h-12.625v-0.007813h-4.1406v2.5977h16.766z"/>
  <path d="m492.29 805.05h0.003907v-18.984h-11.113v19.738h11.109z"/>
  <path d="m545.66 805.43h12.926v22.805h-12.926z"/>
  <path d="m641.41 805.43h12.934v22.805h-12.934z"/>
  <path d="m706.5 815.55v-1.0938h-50.637v2.4297h50.637z"/>
  <path d="m708.02 807.33v2.5898h16.777v-2.543h-4.9023v-0.046875z"/>
  <path d="m708.02 786.07h11.113v19.738h-11.113z"/>
  <path d="m776.19 796.87v-1.3203h-55.543v2.4258h55.543z"/>
  <path d="m776.19 792.86v-1.25h-55.543v2.4258h55.543z"/>
  <path d="m777.71 729.76h10.82v13.844h-10.82z"/>
  <path d="m806.97 732.83h-16.926v1.7656h15.449z"/>
  <path d="m811.75 728.31h18.895v-1.9922h-18.895z"/>
  <path d="m855.86 721.35h-22.133l-2.6797 3.2031h27.496z"/>
  <path d="m921.12 724.55-2.6836-3.2031h-22.129l-2.6836 3.2031z"/>
  <path d="m957.27 720.94h-37.191l1.1289 1.3516h34.93z"/>
  <path d="m919.55 718.07h38.234v1.3516h-38.234z"/>
  <path d="m825.81 620.38h-54.684v2.9336l1.1914 1.4102v-0.10547h56.82v-4.2383z"/>
  <path d="m885.24 588.3h-10.664l0.87109 1.6055h8.918z"/>
  <path d="m875.14 586.27v0.51562h9.5273v-0.51562z"/>
  <path d="m887.84 575.86h-15.867l1.2539 1.6055h13.355z"/>
  <path d="m886.18 579.5h0.007812v-0.51562h-12.574v0.51562z"/>
  <path d="m883.57 581.53h1.0938v-0.51562h-9.5273v0.51562z"/>
  <path d="m877.75 583.04h4.3047v1.7109h-4.3047z"/>
  <path d="m871.18 571.52h17.457v2.8242h-17.457z"/>
  <path d="m787.7 561.67 8.9258 9.6172v-0.23828h10.133v-0.003906h20.488v0.003906h15.461l-13.742-9.3789z"/>
  <path d="m828.91 549.45v-1.3633h-4.8828v0.003907h-32.879v1.3555h37.531v0.003906z"/>
  <path d="m818.96 540.47h-27.805v0.83984h30.367l-0.75781-0.83984z"/>
  <path d="m792.61 537.26h24.832v1.6953h-24.832z"/>
  <path d="m813.95 534.92h-24.613l0.41016 0.82812h26.75l-0.74219-0.82812z"/>
  <path d="m788.57 533.4h23.855v-1.6953h-24.707z"/>
  <path d="m786.4 529.35 0.25781 0.83594h24.82l-0.75781-0.83594z"/>
  <path d="m762.21 527.83h22.801l0.46484-1.5234 0.46875 1.5234h21.457v-1.6875h-45.191z"/>
  <path d="m803.89 523.79h-39.988l-0.75391 0.83594h43.309l-0.75391-0.83594z"/>
  <path d="m767.23 520.58h35.145v1.6992h-35.145z"/>
  <path d="m802.29 516.76h-0.89062l0.89062 0.98828z"/>
  <path d="m820.16 489.84h-25.898v5.1719l-0.40625 0.48047-1.332 1.5742 1.3008 1.125c3.4961-3.6523 8.3555-5.7461 13.391-5.7461 6.5195 0 12.445 3.3633 15.789 8.8711v-2.2031l-0.19141-0.94531-2.2461-2.6836-0.40234-0.48438v-1.0352z"/>
  <path d="m825.96 495.48h-3.418l1.4219 1.6992z"/>
  <path d="m782.68 488.32h37.48v-0.003906h12.859l3.293-2.9375c1.082-0.96484 2.4531-1.5156 3.8906-1.5898-0.20312-0.40234-0.375-0.87891-0.51953-1.4297l-0.015625-0.066407c-0.16406-0.63672-0.125-1.4609 0.09375-2l0.50781-1.2383h-66.301l-0.027344 0.023438-0.023437-0.023438h-0.25781v1.6797l9.0156 7.8086z"/>
  <path d="m703.15 486.73h9.5898l10.098 8.5977 0.48047 0.40625v5.8906h58.508c0.082031-0.11328 0.16797-0.22656 0.26953-0.35156 0.089844-0.10938 0.1875-0.21094 0.28906-0.30469-0.039062-0.24609 0.015626-0.5 0.16797-0.71094 0.058594-0.085938 0.17188-0.23828 0.30078-0.42188l-0.28516-0.003906 0.72656-1.1641c0.32422-0.52734 0.52734-1.1055 0.60156-1.7188l0.58984-4.8477-11.855-10.266h-69.477z"/>
  <path d="m607.03 480.68-0.023438 0.082031c-0.20703 0.79297-0.46484 1.457-0.76172 1.9883 1.8477 0.023437 3.6211 0.70703 5.0039 1.9375l2.293 2.043h88.094v-7.0508h-94.484c-0.003907 0.34766-0.039063 0.69141-0.12109 1z"/>
  <path d="m499.1 486.73h88.75l3.1562-2.4141c1.0234-0.78125 2.2344-1.2891 3.5039-1.4844-0.32031-0.54297-0.59375-1.2422-0.8125-2.0781-0.085938-0.33594-0.12109-0.71094-0.11719-1.0781h-94.48z"/>
  <path d="m417.38 496.95c0.074219 0.61719 0.27344 1.1914 0.59375 1.7109l0.71094 1.1562-0.26953 0.003907c0.10547 0.15234 0.21094 0.30078 0.30859 0.4375 0.15234 0.21094 0.20703 0.46484 0.16797 0.71094 0.10156 0.09375 0.19922 0.19531 0.28906 0.30469 0.10156 0.125 0.1875 0.24219 0.26953 0.35156h57.973v-6.2969h0.48047l10.066-8.5977h9.6172v-4.8945h-69.477l-11.375 9.8438z"/>
  <path d="m361.6 482.29-0.015625 0.066407c-0.14453 0.55078-0.31641 1.0273-0.51953 1.4297 1.4375 0.070313 2.8125 0.625 3.8906 1.5898l3.293 2.9375h12.859v0.003906h37.195l8.7656-7.5859v-1.6797h-66.07l0.50781 1.2383c0.21875 0.53906 0.25781 1.3633 0.09375 2z"/>
  <path d="m378.72 495.48h-3.418l1.9961 1.6992z"/>
  <path d="m394.05 492.45c4.918 0 9.6641 1.9922 13.141 5.4883l1.3164-1.1406-1.1016-1.3008-0.40625-0.48047v-1.0352l0.003906-4.1406h-25.898v5.168l-0.40234 0.48438-2.2461 2.6836-0.19141 0.94531v2.2031c3.3438-5.5117 9.2656-8.875 15.785-8.875z"/>
  <path d="m398.98 517.75 0.89062-0.98828h-0.89062z"/>
  <path d="m398.89 520.58h35.145v1.6992h-35.145z"/>
  <path d="m395.57 523.79-0.75391 0.83594h43.305l-0.75-0.83594z"/>
  <path d="m393.87 527.83h21.461l0.46875-1.5234 0.46484 1.5234h22.801v-1.6875h-45.195z"/>
  <path d="m389.79 530.19h24.82l0.25391-0.83594h-24.316z"/>
  <path d="m388.84 533.4h23.855l0.84766-1.6953h-24.703z"/>
  <path d="m385.52 534.92-0.74219 0.82812h26.75l0.41016-0.82812z"/>
  <path d="m380.51 540.47-0.75781 0.83984h30.363v-0.83984z"/>
  <path d="m372.36 548.08v1.3633h0.23047v-0.003906h37.527v-1.3555h-32.879v-0.003907z"/>
  <path d="m358.57 571.05h15.461v-0.003906h20.488v0.003906h9.8047l8.707-9.3789h-40.719z"/>
  <path d="m329.3 575.86h-15.867l1.2578 1.6055h13.355z"/>
  <path d="m327.65 579.5v-0.51562h-12.574v0.51562z"/>
  <path d="m326.13 581.53v-0.51562h-9.5273v0.51562z"/>
  <path d="m319.21 583.04h4.3047v1.7109h-4.3047z"/>
  <path d="m312.63 571.52h17.457v2.8242h-17.457z"/>
  <path d="m316.6 586.27v0.51562h9.5273v-0.51562z"/>
  <path d="m326.7 588.3h-10.664l0.875 1.6055h8.918z"/>
  <path d="m319.21 591.43h4.3125v6.2617h-4.3125z"/>
  <path d="m318.73 599.32h5.2773l-0.09375-0.11719h-5.0898z"/>
  <path d="m391.55 612.18c0-0.51953-0.15625-1.0039-0.42578-1.4023-0.003906-0.003907-0.007812-0.011719-0.011719-0.015626-0.039062-0.058593-0.082031-0.11719-0.12891-0.17187-0.45703-0.55859-1.1523-0.91406-1.9258-0.91406h-9.5703c-1.3867 0-2.5117 1.125-2.5117 2.5117v6.6758h14.574z"/>
  <path d="m372.13 620.38v4.2383h56.473l1.1055-1.3047v-2.9336z"/>
  <path d="m223.11 715.2v1.5547h16.383v-1.5547z"/>
  <path d="m220.64 718.27v1.5586h21.324v-1.5586z"/>
  <path d="m217.55 724.55h27.5l-2.6836-3.2031h-22.133z"/>
  <path d="m247.43 726.67h30.328v1.3516h-30.328z"/>
  <path d="m279.28 726.07h29.23v4.8242h-29.23z"/>
  <path d="m310.02 726.67h30.316v1.3516h-30.316z"/>
  <path d="m366.29 728.31h2.8164v-2.2422h-27.254v4.8203h24.438z"/>
  <path d="m364.17 737.2h31.816l-3.2383-3.8672h-25.34z"/>
  <path d="m398.37 744.44h11.609l0.29297-0.34766v-1.418h-11.902z"/>
  <path d="m424.46 746.84-1.4453-1.7109h-11.633l-1.4414 1.7109z"/>
  <path d="m424.46 764.85h-14.52l1.4414 1.7109h11.633z"/>
  <path d="m406.26 788.84h16.348v2.4961h-16.348z"/>
  <path d="m422.61 792.86h-19.578v2.4961h19.578z"/>
  <path d="m422.61 796.87h-19.98l-3.8984 4.6523h23.879z"/>
  <path d="m492.29 811.43h-20.062v2.5977h20.062z"/>
  <path d="m492.29 815.55h-20.469l-4.0273 4.8086h24.496z"/>
  <path d="m535.4 834.45v3.1875h33.43v-3.1875z"/>
  <path d="m530.22 844.86h43.793l-4.7773-5.707h-34.238z"/>
  <path d="m576.39 852.14h47.207v2.4258h-47.207z"/>
  <path d="m669.78 844.86-4.7773-5.707h-34.238l-4.7773 5.707z"/>
  <path d="m633.43 834.45h-2.2617v3.1875h33.43v-3.1875z"/>
  <path d="m639.9 829.75h-4.9531v3.1875h25.871v-3.1875z"/>
  <path d="m655.86 822.34h50.637v2.4258h-50.637z"/>
  <path d="m708.02 821.87h25.359v6.9531h-25.359z"/>
  <path d="m708.02 815.55v4.8086h24.496l-4.0156-4.8086z"/>
  <path d="m776.19 803.43h-55.543v2.3711h5.6602v0.054687h49.883z"/>
  <path d="m777.71 803.04h24.73v6.7656h-24.73z"/>
  <path d="m777.71 801.52h23.867l-3.8867-4.6523h-19.98z"/>
  <path d="m777.71 792.86v2.4961h19.574v-2.4961z"/>
  <path d="m777.71 788.84h16.348v2.4961h-16.348z"/>
  <path d="m788.93 766.56 1.4453-1.7109h-14.52l1.4414 1.7109z"/>
  <path d="m777.3 745.12-1.4414 1.7109h14.52l-1.4453-1.7109z"/>
  <path d="m790.04 739.39h12.855v1.7656h-12.855z"/>
  <path d="m804.42 738.72h33.551v5.7148h-33.551z"/>
  <path d="m837.1 737.2-3.2383-3.8672h-25.34l-3.2383 3.8672z"/>
  <path d="m859.41 726.07h-27.254v2.2422h2.8203v2.5781h24.434z"/>
  <path d="m860.93 726.67h30.316v1.3516h-30.316z"/>
  <path d="m892.76 726.07h29.23v4.8242h-29.23z"/>
  <path d="m923.51 726.67h30.328v1.3516h-30.328z"/>
  <path d="m955.36 726.07h29.23v4.8242h-29.23z"/>
  <path d="m958.9 721.35-2.6836 3.2031h27.5l-2.6836-3.2031z"/>
  <path d="m960.26 718.27h-0.95312v1.5586h21.324v-1.5586z"/>
  <path d="m964.49 715.2h-2.7109v1.5547h16.383v-1.5547z"/>
  <path d="m965.6 697.79h8.7422l0.80469-0.95312h-10.352z"/>
  <path d="m963.92 684.2h12.098v11.113h-12.098z"/>
  <path d="m964.79 682.69h10.352l-0.80469-0.95703h-8.7422z"/>
  <path d="m966 669.97h7.9258v10.242h-7.9258z"/>
  <path d="m979.36 665.25h-18.773l1.8711 3.2031h15.035z"/>
  <path d="m964.49 662.18h-2.7109v1.5547h16.375v-1.5547z"/>
  <path d="m966.01 657.3h7.918v3.3633h-7.918z"/>
  <path d="m978.16 654.22h-16.375v1.5547h16.375z"/>
  <path d="m980.63 652.71v-1.5547h-21.324v1.5547z"/>
  <path d="m983.72 646.43h-27.508l1.0938 1.3047 1.5938 1.9023h22.133z"/>
  <path d="m955.35 639.87h29.238v5.0469h-29.238z"/>
  <path d="m845.54 638.35h144.07l-12.297-10.992h-144.06z"/>
  <path d="m932.95 610.83h-6.5625l-0.003907-0.007813h-43.188l-0.003906 0.007813h-6.5703l-0.003906-0.007813h-51.051c0.15234 0.42578 0.24219 0.88281 0.24219 1.3633v6.6758h4.8438v6.1758l0.88672 0.79297h145.32v-15.008h-43.902z"/>
  <path d="m932.22 609.3 0.085938-0.10938h-5.2773l0.085937 0.10938z"/>
  <path d="m926.22 600.84h6.8867v6.8359h-6.8867z"/>
  <path d="m927.51 591.43h4.3125v6.2617h-4.3125z"/>
  <path d="m927.03 599.32h5.2773l-0.09375-0.11719h-5.0898z"/>
  <path d="m935 588.3h-10.664l0.87109 1.6055h8.918z"/>
  <path d="m924.9 586.27v0.51562h9.5234v-0.51562z"/>
  <path d="m927.51 583.04h4.3047v1.7109h-4.3047z"/>
  <path d="m934.43 581.53v-0.51562h-9.5234v0.51562z"/>
  <path d="m935.95 579.5v-0.51562h-12.578v0.51562z"/>
  <path d="m937.6 575.86h-15.863l1.2539 1.6055h13.355z"/>
  <path d="m920.94 571.52h17.457v2.8242h-17.457z"/>
  <path d="m843.86 570h100.71l-10.91-9.4883h-103.7z"/>
  <path d="m829.95 558.99h103.23v-2.5508h-3.6836l-0.75781 0.011719h-98.793z"/>
  <path d="m828.68 552.03h99.305v2.8945h-99.305z"/>
  <path d="m830.43 550.51h96.25l-3.3867-2.8828h-92.863z"/>
  <path d="m824 543.21h93.629v2.8945h-93.629z"/>
  <path d="m818.96 538.96h2.4766l2.5469 2.7422h92.355l-3.3906-2.8945h-93.988z"/>
  <path d="m818.54 535.75 0.42188 0.46484 0.94922 1.0508 87.375 0.023437v-2.8789h-89.953z"/>
  <path d="m813.52 530.19 0.42187 0.46875v2.2305h92.039l-3.4102-2.9102h-89.242z"/>
  <path d="m808.92 526.14v1.6875h2.4766l0.56641 0.62891h84.953v-2.8945h-87.996z"/>
  <path d="m803.89 522.28h2.4883l1.5938 1.7695h87.641l-3.3789-2.8789h-88.344z"/>
  <path d="m803.8 519.06v0.58594h82.754v-2.8906h-82.754z"/>
  <path d="m808.5 512.35-3.3945 2.8906h80.16l-3.3984-2.8906z"/>
  <path d="m814.18 507.93h62.016v2.9023h-62.016z"/>
  <path d="m818.88 503.52-3.3984 2.8906h59.422l-3.3945-2.8906z"/>
  <path d="m824.52 499.11h41.32v2.8906h-41.32z"/>
  <path d="m825.82 497.59h38.73l-3.3984-2.8906h-31.934z"/>
  <path d="m821.68 489.84v4.1328h6.0625l0.91797-0.78125h3.9062c-0.39453-0.33594-0.74609-0.71875-1.0508-1.1484l-0.046875-0.066406c-0.46094-0.65234-0.45312-1.4961-0.039062-2.1367z"/>
  <path d="m836.67 493.18h17.07c1.375 0 2.6758-0.59375 3.5781-1.6055h-24.23c0.90625 1.0156 2.207 1.6055 3.582 1.6055z"/>
  <path d="m833.34 490.06h23.5l-4.9492-3.7852c-0.83203-0.63672-1.8672-0.98828-2.9141-0.98828h-8.457c-1.1797 0-2.3125 0.43359-3.1953 1.2188z"/>
  <path d="m841.16 481.98c0.33594 1.3047 0.79297 1.7578 0.92188 1.7773h6.2305c0.125-0.015625 0.58203-0.46875 0.92188-1.7773 0.09375-0.35547 0.054687-0.87109-0.039063-1.0625l-2.0586-4.3125c-0.58984-0.98437-1.375-1.543-2.1797-1.543-0.035156 0-0.070313 0-0.10547 0.003906-0.81641 0.046875-1.5547 0.6875-2.0195 1.7539l-1.6562 4.0508c-0.085937 0.21484-0.12109 0.69531-0.03125 1.0469z"/>
  <path d="m811.84 468.17h28.145v0.66016h-28.145z"/>
  <path d="m804.48 462.43v6.4023h5.8359v-6.4023h-0.09375v6.3047h-5.6523v-6.3047z"/>
  <path d="m803.38 460.91h8.0352v-0.62109h-8.0352z"/>
  <path d="m807 455.92-1.4258 2.8516h3.5742l-1.4297-2.8516z"/>
  <path d="m811.84 464.2h23.293v2.4531h-23.293z"/>
  <path d="m811.84 462.68h22.316l-0.23047-0.25391h-22.086z"/>
  <path d="m812.93 460h18.379v0.91016h-18.379z"/>
  <path d="m810.7 458.48h19.668l-0.23047-0.25391h-19.562z"/>
  <path d="m809.81 456.71h17.719v-0.91016h-18.172z"/>
  <path d="m808.39 454.29h18.176l-0.23047-0.25391h-18.023z"/>
  <path d="m807.85 452.51h15.879v-0.90625h-16.156z"/>
  <path d="m818.77 445.63h-23.824l-0.22656 0.25391h24.277z"/>
  <path d="m793.77 447.4h26.168v0.91016h-26.168z"/>
  <path d="m822.55 449.83h-31.402l-0.23438 0.25781h31.871z"/>
  <path d="m807.14 451.61h-17.168v0.90625h16.895z"/>
  <path d="m806.41 454.03h-19.039l-0.23438 0.25391h19.195z"/>
  <path d="m805.36 455.8h-19.184v0.91016h18.73z"/>
  <path d="m804.15 458.23h-20.578l-0.23047 0.25391h20.68z"/>
  <path d="m782.39 460h19.477v0.91016h-19.477z"/>
  <path d="m802.96 462.43h-23.18l-0.23047 0.25391h23.41z"/>
  <path d="m778.62 464.2h24.344v2.4531h-24.344z"/>
  <path d="m774.79 468.17h28.18v0.66016h-28.18z"/>
  <path d="m775.06 470.35v2.832h63.598v-2.832z"/>
  <path d="m702.67 478.16 0.48047 0.41016v1.7461h69v-4.8359h-8.5781l-0.76172 0.011719h-63.266z"/>
  <path d="m683.04 469.6h9.5898l5.1211 4.3672h64.301v-5.3789h-79.012z"/>
  <path d="m683.04 462.54v4.5234h77.32l-7.8516-5.3633h-69.469z"/>
  <path d="m681.57 460.18h60.359v-5.3672h-66.664z"/>
  <path d="m662.88 452.46h9.6133l0.98828 0.84375h66.754l-7.8477-5.3672h-69.508z"/>
  <path d="m662.4 443.87 0.48047 0.40625v2.1445h58.914v-5.3789h-62.715z"/>
  <path d="m642.77 435.3h9.5664l4.9609 4.2227h62.805l-7.875-5.3789h-69.457z"/>
  <path d="m642.77 428.25v4.375h58.863v-5.3633h-58.863z"/>
  <path d="m641.12 425.74h58.82l-7.832-5.3789h-57.309z"/>
  <path d="m626.44 414.66-0.089844 0.12891c-0.99219 1.4023-2.2734 2.5391-3.7305 3.3633h9.6016l0.80469 0.68359 48.5 0.003906v-5.3672h-54.586c-0.078125 0.41406-0.24219 0.82031-0.5 1.1875z"/>
  <path d="m625.99 410.7c0.39453 0.35156 0.67578 0.78906 0.83594 1.2617h53.004l-7.8477-5.3672h-50.598z"/>
  <path d="m662.88 400.89v4.1914h1.0664c-0.33984-1.3281-0.69531-2.7266-1.0664-4.1914z"/>
  <path d="m617.74 250.71c2.6367 7.1055 12.523 34.863 14.227 56.035 0.83203 10.434 1.1055 26.414 1.1875 37.984v3.543h0.89453c0.3125-3.4102 0.57812-5.9453 0.96484-7.3945l0.53516-2.0078 0.88281 1.8828c0.57422 1.2227 2.2344 5.9414 2.7852 7.5195h1.4805c1.0859 0 1.9727 0.89062 1.9727 1.9883 0 0.17578-0.027344 0.34766-0.070313 0.51172 1.1016 0.23828 1.9258 1.2188 1.9258 2.3867 0 0.83203-0.41406 1.5742-1.0703 2.0117 1.6367 4.1641 4.4453 16.297 8.3594 36.102h0.46484l9.8672 6.7461c-5.1719-20.422-12.961-51.605-18.539-75.906-8.6055-37.461-15.359-55.629-21.016-69.691-1.2969-0.67969-2.9492-1.2461-4.8516-1.7109z"/>
  <path d="m590.68 241.66c0.17578-0.015624 0.35156-0.027343 0.52734-0.042968 0.17188-0.011719 0.34766-0.027344 0.52344-0.039063 0.24609-0.019531 0.49609-0.035156 0.74219-0.050781 0.17969-0.011719 0.36328-0.023438 0.54297-0.035156 0.25-0.015625 0.49609-0.027344 0.74609-0.042969 0.18359-0.011719 0.36719-0.019531 0.55078-0.027344 0.25391-0.011719 0.50781-0.023437 0.76562-0.035156 0.18359-0.007813 0.36328-0.015625 0.54688-0.023437 0.26562-0.007813 0.53516-0.015626 0.80469-0.023438 0.17187-0.003906 0.34375-0.011719 0.51953-0.015625 0.29688-0.007813 0.59375-0.011719 0.89062-0.015625 0.14844-0.003906 0.29688-0.003906 0.44531-0.007812 0.44531-0.003907 0.89062-0.007813 1.3398-0.007813s0.89453 0.003906 1.3438 0.007813c0.14453 0 0.28906 0.003906 0.4375 0.007812 0.30078 0.003906 0.59766 0.007812 0.89844 0.015625 0.17187 0.003906 0.34375 0.007813 0.51562 0.015625 0.26953 0.007812 0.53906 0.015625 0.80859 0.023438 0.17969 0.007812 0.35938 0.015624 0.53906 0.019531 0.25781 0.011719 0.51562 0.019531 0.76953 0.035156 0.18359 0.007813 0.36719 0.019531 0.55078 0.027344 0.25 0.011719 0.5 0.027343 0.74609 0.042969 0.18359 0.011718 0.36328 0.023437 0.54297 0.035156 0.25 0.015625 0.49609 0.035156 0.74219 0.050781 0.17578 0.011719 0.35547 0.027344 0.52734 0.039063 0.24609 0.019531 0.49219 0.039062 0.73828 0.0625 0.17188 0.015624 0.33984 0.027343 0.50781 0.042968 0.25391 0.023438 0.5 0.046875 0.75 0.074219 0.12109 0.011719 0.24609 0.023437 0.37109 0.035156-1.4062-0.61719-2.7695-1.2852-4.1094-2.0039l-0.074219 0.035156-0.32031-0.24219c-0.82031-0.4375-1.6875-0.93359-2.5781-1.4766-0.20312-0.125-0.41016-0.23438-0.61719-0.33594-2.0508-0.75391-4.125-0.75391-6.1758 0-0.20703 0.10156-0.41406 0.21094-0.61328 0.33203-0.89453 0.54297-1.7617 1.0391-2.582 1.4766l-0.30859 0.23828-0.074218-0.03125c-0.75 0.40234-1.5078 0.78516-2.2734 1.1562z"/>
  <path d="m590.68 239.3c0.19531-0.097656 0.39062-0.19141 0.58594-0.29297-0.21875-0.125-0.41406-0.24609-0.58594-0.36328z"/>
  <path d="m592.38 235.75c-0.13281 0.039062-0.26562 0.078125-0.39844 0.11719l-0.14453 0.035156c-0.38672 0.12109-0.64453 0.25391-0.80469 0.34766l-0.11719 0.074219-0.050781 0.035156c-0.14844 0.10547-0.17969 0.17188-0.1875 0.18359v0.015625c0.027344 0.14062 0.44531 0.73828 2.1523 1.5508 1.0078-0.72656 2.0312-1.2812 3.0703-1.6758 2.3555-1.1367 5.0781-1.1367 7.4336 0 1.0352 0.39062 2.0625 0.94531 3.0664 1.668 1.8594-0.91406 2.1484-1.3945 2.1914-1.5273-0.027344-0.035157-0.097656-0.11328-0.25391-0.21484l-0.054688-0.039063c-0.019531-0.015624-0.042969-0.03125-0.09375-0.054687l-0.042969-0.023437c-0.19141-0.10938-0.44922-0.22266-0.80078-0.35547l-0.089844-0.023438c-0.15234-0.046875-0.30469-0.089843-0.45703-0.13672-0.078125-0.023437-0.15234-0.042968-0.23047-0.066406h-0.24219l-0.074219-0.074218c-0.10547-0.023438-0.20703-0.046876-0.31641-0.070313-0.11719-0.027344-0.23438-0.050781-0.35547-0.078125-0.14062-0.027344-0.28516-0.054688-0.42969-0.082031-0.12109-0.023438-0.24219-0.046875-0.36719-0.066407-0.14844-0.023437-0.30078-0.046874-0.44922-0.070312-0.125-0.019531-0.24609-0.039062-0.37109-0.054688-0.15625-0.019531-0.3125-0.039062-0.47266-0.058593-0.125-0.015625-0.24609-0.03125-0.37109-0.042969-0.16406-0.015625-0.33203-0.03125-0.49609-0.046875-0.12109-0.011719-0.24219-0.023437-0.36328-0.03125-0.17578-0.011719-0.35547-0.023437-0.53125-0.035156-0.11328-0.007813-0.22656-0.015625-0.34375-0.023438-0.20312-0.011719-0.41016-0.015625-0.61328-0.023437-0.089843-0.003906-0.17969-0.007813-0.26953-0.011719-0.29688-0.007813-0.59375-0.011719-0.89062-0.011719h-0.050781c-0.27734 0-0.55859 0.003906-0.83594 0.011719-0.097656 0.003906-0.19141 0.007813-0.28906 0.011719-0.19922 0.007812-0.39844 0.011718-0.59375 0.023437-0.11328 0.007813-0.22656 0.015625-0.33984 0.023438-0.17969 0.011719-0.35547 0.019531-0.53516 0.035156-0.12109 0.007813-0.23828 0.023437-0.35938 0.03125-0.16797 0.015625-0.33594 0.027344-0.5 0.046875-0.125 0.011719-0.24609 0.027344-0.37109 0.042969-0.15625 0.019531-0.31641 0.035156-0.47266 0.058593-0.125 0.015626-0.25 0.035157-0.37109 0.054688-0.14844 0.023438-0.30078 0.042969-0.44922 0.070312-0.125 0.019532-0.24609 0.042969-0.36719 0.066407-0.14453 0.027343-0.28906 0.050781-0.42969 0.082031-0.12109 0.023438-0.23828 0.050781-0.35938 0.078125-0.10156 0.023437-0.20703 0.046875-0.30859 0.070313l-0.375 0.37891z"/>
  <path d="m597.83 233.15c-0.17578 0.10547-0.34766 0.20703-0.51562 0.30859 0.0625-0.003906 0.12891-0.003906 0.19141-0.007812 0.24609-0.015625 0.49609-0.027344 0.74609-0.035157 0.10547-0.003906 0.21094-0.007812 0.31641-0.011718 0.34766-0.011719 0.69531-0.015625 1.043-0.015625h0.003907 0.019531c0.34375 0 0.68359 0.007812 1.0273 0.015625 0.10547 0.003906 0.21484 0.007812 0.32031 0.011718 0.25 0.007813 0.49609 0.019532 0.74609 0.035157 0.066406 0.003906 0.12891 0.003906 0.19531 0.007812-0.16797-0.097656-0.33984-0.19922-0.51172-0.30469-1.1094-0.68359-2.4766-0.68359-3.582-0.003906z"/>
  <path d="m599.65 212.55c-0.25 1.0078-0.60938 1.9805-1.0703 2.9062h2.1406c-0.46484-0.93359-0.82031-1.9023-1.0703-2.9062z"/>
  <path d="m597.93 220.74h5.332c-0.60547-0.85156-1.8125-2.5625-2.5781-3.7656h-2.0547c-0.76953 1.207-1.9766 2.918-2.5781 3.7656z"/>
  <path d="m594.49 223.93c-0.42188 0.52734-1.7031 2.1289-1.7617 2.9766-0.070312 0.96094 0.45313 1.7188 0.90234 2.1836 1.2656 1.3125 3.625 2.1055 6 2.0195h0.054688c2.3789 0.085938 4.7344-0.70703 6-2.0195 0.44922-0.46875 0.97266-1.2266 0.90234-2.1836-0.0625-0.84766-1.3438-2.4531-1.7617-2.9766-0.85156-1.0664-2.1055-1.6758-3.4414-1.6758h-3.4492c-1.3398 0-2.5938 0.61328-3.4453 1.6758z"/>
  <path d="m576.24 251.33 0.011718-0.023437 0.23828-0.11328c1.7461-0.8125 4.1562-1.5195 7.0273-2.082 0.023438-0.0625 0.039063-0.10547 0.042969-0.11328l0.17969 0.070312c4.543-0.875 10.207-1.4062 16.227-1.4727 6.5703-0.070312 12.5 0.44141 17.074 1.4258l0.054687-0.019532c0 0.003906 0.007813 0.019532 0.011719 0.035156 2.5781 0.55859 4.7227 1.2656 6.2969 2.1094 1.707-0.79297 2.6719-1.6602 2.6719-2.4141 0-1.0039-1.6914-2.1797-4.5352-3.1562l-0.18359-0.007813-0.089844-0.085937c-1.0391-0.35547-2.25-0.68359-3.6016-0.97656h-0.003907c-0.30859-0.066406-0.62109-0.13281-0.9375-0.19922-3.8086-0.76953-8.3945-1.2617-13.27-1.4297-0.44141-0.015625-0.88672-0.027344-1.3359-0.039062-0.82812-0.019532-1.6602-0.027344-2.5-0.027344-6.707 0-13.117 0.60156-18.043 1.6953-1.3477 0.29297-2.5508 0.61719-3.5859 0.96875l-0.089844 0.089844h-0.20312c-2.8438 0.97656-4.5352 2.1523-4.5352 3.1562-0.003906 0.82422 1.1094 1.7617 3.0781 2.6094z"/>
  <path d="m537.86 398.16h0.49609l10.066-6.8828h0.89844c3.8906-19.688 6.6875-31.754 8.3203-35.906-0.66016-0.44141-1.0742-1.1836-1.0742-2.0156 0-1.168 0.82812-2.1484 1.9258-2.3867-0.042969-0.16406-0.070313-0.33594-0.070313-0.51172 0-1.0938 0.88281-1.9883 1.9727-1.9883h1.4805c0.55078-1.5781 2.2148-6.2969 2.7852-7.5195l0.88281-1.8789 0.53516 2.0078c0.38672 1.4492 0.65234 3.9844 0.96484 7.3945h0.44922c0.097656-18.848 0.50391-32.887 1.2109-41.727 1.6953-21.109 11.52-48.77 14.188-55.973-2.1797 0.47266-4.0664 1.0391-5.5273 1.6875-0.03125 0.054687-0.058593 0.11328-0.089843 0.17188v0.003906l0.003906 0.003906c-6.6055 13.125-12.266 31.957-20.887 69.477-5.6289 24.523-13.516 56.082-18.688 76.492l0.15234-0.10547z"/>
  <path d="m537.86 399.68h-0.42188c-0.48438 1.9062-0.94141 3.7109-1.3711 5.3945h1.793z"/>
  <path d="m574.93 410.68 5.3477-4.0898h-51.531l-7.8398 5.3672h53.055c0.19531-0.49219 0.51953-0.93359 0.96875-1.2773z"/>
  <path d="m568.5 418.16h9.5312c-1.457-0.82422-2.7383-1.9648-3.7305-3.3633-0.28906-0.40625-0.46094-0.85938-0.52344-1.3164h-54.562v5.3672h48.484z"/>
  <path d="m565.91 420.36h-57.305l-7.8438 5.3789h58.828z"/>
  <path d="m557.97 428.25-0.16406-0.98828h-58.707v5.3633h58.871z"/>
  <path d="m548.38 435.3h9.5898v-1.1562h-69.488l-7.8555 5.3789h62.789z"/>
  <path d="m537.86 445.38v-1.1289l0.45703-0.38672 3.3242-2.8281h-62.699v5.3789h58.918z"/>
  <path d="m528.22 452.46h9.6328v-4.5234h-69.523l-7.8359 5.3672h66.734z"/>
  <path d="m525.45 454.82h-66.648v5.3672h60.344z"/>
  <path d="m517.7 462.54-0.33594-0.83984h-69.152l-7.8516 5.3633h77.34z"/>
  <path d="m508.09 469.6h9.6094v-1.0117h-79.004v5.3789h64.27z"/>
  <path d="m497.59 479.68v-1.1289l0.44922-0.38672 3.1328-2.668h-63.988v-0.011719h-8.5938v4.8359h69z"/>
  <path d="m398.3 468.17h28.18v0.66016h-28.18z"/>
  <path d="m390.95 462.43v6.4023h5.8359v-6.4023h-0.089844v6.3047h-5.6523v-6.3047z"/>
  <path d="m389.85 460.91h8.0352v-0.62109h-8.0352z"/>
  <path d="m393.55 455.92-1.4297 2.8516h3.5742l-1.4258-2.8516z"/>
  <path d="m398.3 464.2h24.352v2.4531h-24.352z"/>
  <path d="m398.3 462.68h23.406l-0.23047-0.25391h-23.176z"/>
  <path d="m399.4 460h19.469v0.91016h-19.469z"/>
  <path d="m397.25 458.48h20.672l-0.23047-0.25391h-20.57z"/>
  <path d="m396.36 456.71h18.723v-0.91016h-19.18z"/>
  <path d="m394.94 454.29h19.195l-0.23047-0.25391h-19.043z"/>
  <path d="m394.4 452.51h16.895v-0.90625h-17.172z"/>
  <path d="m406.33 445.63h-23.824l-0.22656 0.25391h24.277z"/>
  <path d="m381.33 447.4h26.168v0.91016h-26.168z"/>
  <path d="m410.12 449.83h-31.402l-0.23438 0.25781h31.867z"/>
  <path d="m393.7 451.61h-16.16v0.90625h15.883z"/>
  <path d="m392.95 454.03h-18.027l-0.23047 0.25391h18.18z"/>
  <path d="m391.91 455.8h-18.164v0.91016h17.707z"/>
  <path d="m390.7 458.23h-19.555l-0.23047 0.25391h19.66z"/>
  <path d="m369.96 460h18.371v0.91016h-18.371z"/>
  <path d="m389.43 462.43h-22.094l-0.22656 0.25391h22.32z"/>
  <path d="m366.14 464.2h23.293v2.4531h-23.293z"/>
  <path d="m361.29 468.17h28.145v0.66016h-28.145z"/>
  <path d="m362.61 470.35v2.832h63.598v-2.832z"/>
  <path d="m352.96 483.75h6.2305c0.125-0.015625 0.58203-0.46875 0.92188-1.7773l0.015625-0.066406c0.089844-0.35156 0.054688-0.83203-0.03125-1.0469l-1.6641-4.0664c-0.46094-1.0469-1.1953-1.6875-2.0156-1.7344-0.83984-0.050781-1.668 0.51172-2.2852 1.5391l-2.0586 4.3125c-0.09375 0.19141-0.12891 0.71094-0.039063 1.0625 0.34375 1.3047 0.79688 1.7578 0.92578 1.7773z"/>
  <path d="m363.94 486.51c-0.87891-0.78516-2.0156-1.2188-3.1953-1.2188h-8.457c-1.0469 0-2.082 0.35156-2.9141 0.98828l-4.9492 3.7852h23.5z"/>
  <path d="m347.53 493.18h17.07c1.375 0 2.6758-0.59375 3.5781-1.6055h-24.23c0.90625 1.0156 2.207 1.6055 3.582 1.6055z"/>
  <path d="m369.75 492.04c-0.30469 0.42969-0.66016 0.81641-1.0508 1.1484h3.9062l0.91797 0.78125h6.0625v-4.1289h-9.75c0.41406 0.64062 0.42187 1.4844-0.039063 2.1367z"/>
  <path d="m372.05 494.7h-31.934l-3.3984 2.8906h38.73z"/>
  <path d="m335.43 499.11h41.32v2.8906h-41.32z"/>
  <path d="m382.39 503.52h-52.629l-3.3984 2.8906h59.426z"/>
  <path d="m325.08 507.93h62.016v2.9023h-62.016z"/>
  <path d="m392.77 512.35h-73.371l-3.3945 2.8906h80.16z"/>
  <path d="m397.46 519.06v-2.3047h-82.754v2.8906h82.754z"/>
  <path d="m394.89 522.28h2.4844v-1.1094h-88.344l-3.375 2.8789h87.641z"/>
  <path d="m389.88 527.83h2.4766v-2.2656h-87.996v2.8945h84.949z"/>
  <path d="m387.32 531.71v-1.0508l0.42188-0.46875 0.19141-0.21094h-89.242l-3.4102 2.9102h92.039z"/>
  <path d="m382.31 536.21 0.42188-0.46484 1.207-1.3398h-89.953v2.8789l87.375-0.023437z"/>
  <path d="m377.71 541.31 2.1289-2.3555h2.4766v-0.15234h-93.988l-3.3906 2.8945h92.355z"/>
  <path d="m283.63 543.21h93.629v2.8945h-93.629z"/>
  <path d="m370.84 547.63h-92.863l-3.3867 2.8828h96.25z"/>
  <path d="m273.28 552.03h99.305v2.8945h-99.305z"/>
  <path d="m371.32 556.45h-99.551v-0.011719h-3.6836v2.5508h103.23z"/>
  <path d="m281.84 570h75.562l13.906-9.4883h-103.7l-10.91 9.4883z"/>
  <path d="m262.88 571.52h17.457v2.8242h-17.457z"/>
  <path d="m278.28 577.46 1.2539-1.6055h-15.863l1.2539 1.6055z"/>
  <path d="m277.88 579.5h0.011719v-0.51562h-12.578v0.51562z"/>
  <path d="m276.37 581.53v-0.51562h-9.5273v0.51562z"/>
  <path d="m269.45 583.04h4.3047v1.7109h-4.3047z"/>
  <path d="m266.84 586.27v0.51562h9.5273v-0.51562z"/>
  <path d="m276.93 588.3h-10.664l0.875 1.6055h8.918z"/>
  <path d="m269.45 591.43h4.3125v6.2617h-4.3125z"/>
  <path d="m268.96 599.32h5.2773l-0.09375-0.11719h-5.0898z"/>
  <path d="m268.16 600.84h6.8867v6.8359h-6.8867z"/>
  <path d="m274.16 609.3 0.085938-0.10938h-5.2773l0.085937 0.10938z"/>
  <path d="m370.62 625.03v-6.1758h4.8438v-6.6758c0-0.48047 0.089843-0.9375 0.24219-1.3633l-51.051 0.003906-0.003906 0.007813h-6.5625l-0.003907-0.007813h-43.188l-0.003906 0.007813h-6.5625l-0.003906-0.007813h-43.902v15.008h145.32z"/>
  <path d="m355.73 638.35 12.289-10.992h-144.06l-12.297 10.992z"/>
  <path d="m216.68 639.87h29.238v5.0469h-29.238z"/>
  <path d="m242.37 649.64 1.957-2.3398 0.72656-0.86719h-27.504l2.6875 3.207z"/>
  <path d="m239.49 652.71h2.4727v-1.5547h-21.324v1.5547z"/>
  <path d="m236.78 655.78h2.7109v-1.5547h-16.375v1.5547z"/>
  <path d="m227.34 657.3h7.918v3.3633h-7.918z"/>
  <path d="m223.11 663.73h16.375v-1.5547h-16.375z"/>
  <path d="m225.82 668.45h12.996l1.8711-3.2031h-18.773l1.8672 3.2031z"/>
  <path d="m227.34 669.97h7.9258v10.242h-7.9258z"/>
  <path d="m226.12 682.69h10.352l-0.80859-0.95703h-8.7383z"/>
  <path d="m225.25 684.2h12.102v11.113h-12.102z"/>
  <path d="m235.67 697.79 0.80859-0.95312h-10.352l0.80469 0.95312z"/>
  <path d="m1003.3 705.57h-27.867v3.3359h27.23l65.375 25.922h-88.613l9.7148 5.5977-65.246 1.6953 94.891 51.676h-110.23l69.02 55.438h-68.52l48.926 43.355h-180.32v3.1836c-0.17969 2.4688-1.2148 4.707-2.8125 6.4141-1.5977 1.7031-3.7539 2.875-6.1797 3.2227v33.418c5.0938 0.72656 9.0234 5.1133 9.0234 10.398 0 5.2891-3.9297 9.6719-9.0234 10.395v28.574c4.8203 0.6875 8.6094 4.6719 8.9883 9.5859h0.03125l0.003906 0.78906v0.78125h-0.035156c-0.37891 4.9141-4.168 8.8984-8.9883 9.5859v33.445c4.8477 0.68359 8.6367 4.6914 8.9922 9.6367h186.82v-156.09h1.5156v112.78h17.711l0.003906-156.13h1.5156v100.65h42.336v-156.09h1.5156v97.121l50.906-0.003907v-158.28zm-4.7148 73.426-1.5156-0.82422v-34.613l1.5156-0.039062zm-32.59 116.24-1.0977-0.97656h1.0977z"/>
  <path d="m776.19 895.02c0-4.957-4.0312-8.9883-8.9883-8.9883h-50.207c-4.957 0-8.9883 4.0312-8.9883 8.9883s4.0312 8.9883 8.9883 8.9883h50.207c4.957 0 8.9883-4.0312 8.9883-8.9883z"/>
  <path d="m776.19 949.23c0-4.957-4.0312-8.9883-8.9883-8.9883h-50.207c-4.957 0-8.9883 4.0312-8.9883 8.9883s4.0312 8.9883 8.9883 8.9883h50.207c4.957-0.003906 8.9883-4.0352 8.9883-8.9883z"/>
  <path d="m767.2 1007.5c4.9258 0 8.957-4.0078 8.9844-8.9375v-0.042969c-0.027344-4.9297-4.0586-8.9375-8.9844-8.9375h-50.207c-4.9258 0-8.957 4.0078-8.9844 8.9375v0.042969c0.027343 4.9297 4.0586 8.9375 8.9844 8.9375z"/>
  <path d="m715.52 1042.4v-4.6211h-230.73v4.6211c4.8438 0.6875 8.6367 4.6953 8.9883 9.6406h212.75c0.35547-4.9453 4.1445-8.9531 8.9922-9.6406z"/>
  <path d="m424.12 998.55v0.042969c0.027343 4.9297 4.0586 8.9375 8.9844 8.9375h50.207c4.9258 0 8.957-4.0078 8.9844-8.9375v-0.042969c-0.027344-4.9297-4.0586-8.9375-8.9844-8.9375h-50.207c-4.9258 0-8.957 4.0078-8.9844 8.9375z"/>
  <path d="m424.11 949.23c0 4.957 4.0312 8.9883 8.9883 8.9883h50.207c4.957 0 8.9883-4.0312 8.9883-8.9883s-4.0312-8.9883-8.9883-8.9883h-50.207c-4.957 0-8.9883 4.0312-8.9883 8.9883z"/>
  <path d="m715.52 905.41c-4.8477-0.6875-8.6367-4.6953-8.9922-9.6406h-212.74c-0.35547 4.9453-4.1445 8.9492-8.9922 9.6406v4.6211h230.72z"/>
  <path d="m715.52 938.83v-11.504h-230.73v11.504c2.1953 0.3125 4.1719 1.3047 5.7148 2.7539h219.3c1.543-1.4492 3.5195-2.4414 5.7148-2.7539z"/>
  <path d="m715.52 988.2v-13.539l-230.73-0.003906v13.539c0.90234 0.12891 1.7695 0.375 2.582 0.71875l225.56 0.003907c0.8125-0.34375 1.6797-0.58984 2.582-0.71875z"/>
  <path d="m710.41 990.43h-220.51c2.1836 1.7695 3.6523 4.3906 3.8789 7.3516h0.03125l0.003906 0.78516v0.78125h-0.035156c-0.15234 1.9844-0.86328 3.8164-1.9727 5.3398h216.69c-1.1094-1.5234-1.8164-3.3555-1.9688-5.3398h-0.03125l-0.003906-0.78516v-0.78906h0.035156c0.22656-2.9531 1.6953-5.5742 3.8789-7.3438z"/>
  <path d="m484.79 1022h230.72v14.262h-230.72z"/>
  <path d="m715.52 1008.9c-2.1758-0.30859-4.1406-1.293-5.6797-2.7305h-219.37c-1.5352 1.4375-3.5039 2.418-5.6797 2.7305v11.531h230.72z"/>
  <path d="m715.52 959.62c-0.92969-0.13281-1.8203-0.38672-2.6562-0.74609h-225.41c-0.83594 0.35938-1.7266 0.61328-2.6562 0.74609v13.516h230.72z"/>
  <path d="m706.49 949.23c0-2.2852 0.73437-4.3984 1.9766-6.125h-216.64c1.2422 1.7266 1.9805 3.8398 1.9805 6.125 0 3.2773-1.5078 6.207-3.8672 8.1367h220.42c-2.3594-1.9297-3.8711-4.8633-3.8711-8.1367z"/>
  <path d="m484.79 911.55h230.72v14.262h-230.72z"/>
  <path d="m433.1 904h50.207c4.957 0 8.9883-4.0312 8.9883-8.9883s-4.0312-8.9883-8.9883-8.9883h-50.207c-4.957 0-8.9883 4.0312-8.9883 8.9883s4.0312 8.9883 8.9883 8.9883z"/>
  <path d="m431.62 1042.4v-33.445c-4.8164-0.6875-8.6094-4.6719-8.9883-9.5859h-0.03125l-0.003906-0.78516v-0.78516h0.035156c0.37891-4.9141 4.1719-8.8984 8.9883-9.5859v-28.574c-5.0898-0.72266-9.0234-5.1094-9.0234-10.395 0-5.2891 3.9297-9.6719 9.0234-10.398v-33.418c-4.8438-0.6875-8.6328-4.6914-8.9883-9.6328h-0.003906v-3.1836h-180.62l48.926-43.355h-68.531l69.031-55.438h-110.24l98.406-53.598-68.367 0.003906 9.3281-5.3711h-88.598l65.375-25.922h28.492v-3.3359l-29.129-0.003906-76.691 30.41v158.28h50.902v-97.121h1.5156v156.09h42.336v-100.65h1.5156v156.13h18.578v-112.78h1.5156v156.09h186.27c0.35547-4.9453 4.1445-8.9531 8.9883-9.6406zm-230.22-298.84h1.5156v34.625l-1.5156 0.82812zm33.449 150.93v-0.21484h0.24219z"/>
  <path d="m483.31 1043.8h-50.207c-4.9531 0-8.9844 4.0312-8.9844 8.9883v9.0156h68.176v-9.0156c0-4.957-4.0312-8.9883-8.9844-8.9883z"/>
  <path d="m767.2 1043.8h-50.207c-4.9531 0-8.9844 4.0312-8.9844 8.9883v9.0156h68.18v-9.0156c-0.003906-4.957-4.0312-8.9883-8.9883-8.9883z"/>
  <path d="m588.24 166.23h-3v2.4219h2.9961v9.4844l-2.9961 0.003907v2.4219h2.9961v8.1406h-2.9961v2.4219h2.9961v8.1406h-2.9961v2.4219h2.9961v8.1406h-2.9961v2.4219h2.9961v8.1406h-2.9961v2.4219h2.9961v18.852h1.6797v-18.852h2.8086v-2.4219h-2.8047v-8.1406h2.8086v-2.4219h-2.8086v-8.1406h2.8086v-2.4219h-2.8086v-8.1406h2.8086v-2.4219h-2.8086v-8.1406h2.8086v-2.4219h-2.8086v-9.4844h2.8086v-1.1953l29.781-12.008-29.047-11.711v-1.2695c0-0.72656-0.58984-1.3125-1.3125-1.3125h-1.2812l-1.3359-2.668c-0.1875-0.375-0.72266-0.375-0.90625 0l-1.3359 2.668-1.2773-0.003906c-0.72656 0-1.3203 0.58984-1.3203 1.3203v1.4375h3.5469zm3.5781 55.07v0.60547h-5.668v-0.60547zm0-10.562v0.60547h-5.668v-0.60547zm0-10.562v0.60156h-5.668v-0.60156zm0-10.562v0.60156h-5.668v-0.60156zm0-10.562v0.60156h-5.668v-0.60156zm0-11.305h-5.668v-0.60547h5.668zm-1.8984-1.5156v-22.316h1.1797v22.316zm30.156-10.781-27.348 11.027v-0.24609h-0.71875v-22.098zm-34.473-12.445v-0.52734c0-0.22656 0.18359-0.41016 0.41016-0.41016h6.1367c0.22266 0 0.40234 0.18359 0.40234 0.40234v0.53516z"/>
 </g>
</svg>
